<svg width="70" height="70" fill="none" xmlns="http://www.w3.org/2000/svg"><g clip-path="url(#clip0_19_35)" fill="#000"><path d="M43.532 34.233c.919-1.773 1.495-3.38 1.796-4.824l-4.844.17c1.93 2.086 3.048 4.654 3.048 4.654zM23.35 26.322a5.768 5.768 0 002.443-.736c1.25 1.03 4.119 2.769 8.263 1.572.24-.07.477-.12.711-.153a4.71 4.71 0 014.057-6.795l2.662-.094c-1.602-.837-3.433-1.145-5.03-.964-3.879.439-7.955-1.837-9.757-3.008a5.79 5.79 0 10-3.348 10.178zm10.209 2.694a2.988 2.988 0 00-3.687 2.066l-4.1 14.543.412-12.636c.36-2.147-1.11-4.316-3.563-4.548l-3.933-.648c-2.042-.193-3.905 1.22-4.244 3.244l-2.122 6.94 1.889-.114 3.406-3.196-3.236 4.87-9.344.566a2.623 2.623 0 00.316 5.236l10.649-.644a2.624 2.624 0 002.027-1.166l3.958-5.96-2.557 6.89c-.8 2.157-3.1 1.853-3.327 1.916l-7.224.437 3.616 5.317a.795.795 0 11-1.315.894l-4.03-5.928-1.812.467a3.147 3.147 0 00-2.335 2.649L.928 66.453a3.148 3.148 0 006.244.798l1.334-10.437h7.23v6.716c-3.836.686-6.937 3.052-8.139 4.967A.983.983 0 008.433 70h18.954a.983.983 0 00.835-1.503c-1.202-1.915-4.302-4.28-8.139-4.967v-6.716h6.483a2.99 2.99 0 002.877-2.177l6.181-21.934a2.988 2.988 0 00-2.065-3.687z"/><path d="M69.07 44.57l-5.185-28.338c-.315-1.722-1.704-2.96-3.326-2.96h-5.866c-1.08 0-2.056.553-2.682 1.43l-.607-.005-4.513-2.505a3.532 3.532 0 01-2.61 4.582l5.15 2.86.033.017c.378.203.799.311 1.228.315l.7.005-2.712 1.968-9.783.343a2.637 2.637 0 10.185 5.27l10.587-.37a2.636 2.636 0 001.457-.502l6.842-4.966-5.624 6.644c-.934 1.104-2.169.825-2.602.896l-.764.026-2.797 15.29c-.177.966.507 1.864 1.414 1.864h2.312l-1.357 5.123a3.367 3.367 0 00-.11.719l-.604 14.211a3.369 3.369 0 106.732.287l.59-13.846 1.72-6.494h1.246v6.992c0 .261.03.522.09.776l3.127 13.204a3.37 3.37 0 006.557-1.552l-3.036-12.822v-6.598h2.794c.904 0 1.591-.898 1.414-1.864zM59.296 8.043a5.82 5.82 0 10-10.753-4.457 5.82 5.82 0 0010.753 4.457z"/><path d="M29.18 12.898a.878.878 0 001.243-.03l.96-1.007c.986-1.032 2.472-1.458 3.835-1.035a4.38 4.38 0 003.028-.168l4.102 3.914a1.732 1.732 0 002.391-2.506l-4.13-3.941a4.364 4.364 0 00.156-2.34 4.327 4.327 0 00-1.307-2.308C37.706 1.86 34.962 2 33.316 3.724l-5.947 6.23a.878.878 0 00.03 1.242l1.782 1.702zm5.948-7.544a1.911 1.911 0 112.765 2.639 1.911 1.911 0 01-2.765-2.639z"/></g><defs><clipPath id="clip0_19_35"><path fill="#fff" d="M0 0h70v70H0z"/></clipPath></defs></svg>