<svg width="43" height="42" fill="none" xmlns="http://www.w3.org/2000/svg"><g filter="url(#filter0_d_597_14)"><path d="M25.82 19.26l3.42.22c.64-1.453 1.46-2.18 2.46-2.18.187 0 .313.087.38.26l.02.08c-.813 0-1.453.593-1.92 1.78 1.347-.213 2.293-.787 2.84-1.72.213-.373.32-.673.32-.9 0-.533-.187-.8-.56-.8.08-.227.24-.34.48-.34.453 0 .68.313.68.94 0 .613-.247 1.213-.74 1.8-.72.867-1.787 1.373-3.2 1.52-.293.96-.533 2.16-.72 3.6a226.11 226.11 0 01-.32 2.42c.507-.36 1.38-.953 2.62-1.78 1.24-.827 2.047-1.367 2.42-1.62.6-2.173 1.373-3.973 2.32-5.4.96-1.427 1.967-2.14 3.02-2.14.36 0 .64.113.84.34.213.227.32.52.32.88 0 .973-.467 1.967-1.4 2.98-.933 1.013-2.233 2.107-3.9 3.28-.6 2.413-.9 4.747-.9 7 0 2 .287 3.493.86 4.48.453.773 1.067 1.16 1.84 1.16-.08.267-.267.4-.56.4-.893 0-1.613-.36-2.16-1.08-.827-1.067-1.24-2.787-1.24-5.16 0-1.84.24-3.773.72-5.8-3.013 2-4.647 3.087-4.9 3.26-.4 2.68-.913 4.507-1.54 5.48-.6.907-1.36 1.36-2.28 1.36-.427 0-.767-.147-1.02-.44-.253-.293-.38-.687-.38-1.18 0-1.347 1.287-2.993 3.86-4.94.573-3.533 1.087-5.887 1.54-7.06l-2.98-.22c-1.613 0-2.767.613-3.46 1.84-.333.613-.5 1.227-.5 1.84 0 .32.04.633.12.94.253.947.753 1.42 1.5 1.42 0 .107-.053.207-.16.3a.514.514 0 01-.38.14c-.853 0-1.447-.44-1.78-1.32a3.703 3.703 0 01-.22-1.32c0-.493.14-1.053.42-1.68.547-1.253 1.467-2.067 2.76-2.44.453-.133.94-.2 1.46-.2zm14.16-3.06c0-.507-.213-.76-.64-.76-.693 0-1.387.567-2.08 1.7-.68 1.12-1.273 2.573-1.78 4.36 1.427-1.04 2.533-1.987 3.32-2.84.787-.867 1.18-1.687 1.18-2.46zM24.16 31.98c0 .733.28 1.1.84 1.1.573 0 1.033-.447 1.38-1.34s.673-2.2.98-3.92c-2.133 1.653-3.2 3.04-3.2 4.16z" fill="#7F49C5" fill-opacity=".44" shape-rendering="crispEdges"/></g><g filter="url(#filter1_d_597_14)"><path d="M20.12 6.96l-1.22-.38c-.64.987-1.32 2.76-2.04 5.32-.293 1.013-.62 2.087-.98 3.22a23.933 23.933 0 01-1.22 3.16c-.453.973-.98 1.86-1.58 2.66a6.428 6.428 0 01-2.2 1.9c-.88.467-1.867.7-2.96.7-1.96 0-3.387-.7-4.28-2.1a4.695 4.695 0 01-.74-2.54c0-.373.04-.753.12-1.14.28-1.293.913-2.213 1.9-2.76a3.48 3.48 0 011.74-.44c1.373 0 2.3.533 2.78 1.6.2.44.3.893.3 1.36 0 .453-.093.913-.28 1.38-.453 1.12-1.193 1.68-2.22 1.68a.741.741 0 01-.4-.1.718.718 0 01-.24-.34c.36 0 .7-.093 1.02-.28.533-.32.947-.9 1.24-1.74.093-.28.14-.507.14-.68 0-.187-.013-.393-.04-.62A2.616 2.616 0 008.7 16c-.147-.307-.4-.553-.76-.74-.36-.187-.787-.28-1.28-.28-1.267 0-2.2.56-2.8 1.68-.347.64-.52 1.247-.52 1.82s.06 1.087.18 1.54c.347 1.267 1.073 2.14 2.18 2.62.52.227 1.18.34 1.98.34s1.607-.227 2.42-.68a6.532 6.532 0 002.12-1.8 15.99 15.99 0 001.62-2.58c.48-.947.913-1.967 1.3-3.06.4-1.107.76-2.153 1.08-3.14.853-2.533 1.593-4.3 2.22-5.3-2.013-.627-3.473-.94-4.38-.94-1.72 0-3 .653-3.84 1.96-.48.747-.72 1.513-.72 2.3 0 .227.027.46.08.7.147.88.54 1.407 1.18 1.58.12.027.24.04.36.04-.08.28-.3.42-.66.42-.813 0-1.387-.433-1.72-1.3A3.795 3.795 0 018.5 9.8c0-.507.133-1.073.4-1.7.56-1.347 1.547-2.267 2.96-2.76.667-.227 1.427-.34 2.28-.34.867 0 2.387.347 4.56 1.04.653-.933 1.4-1.4 2.24-1.4.107 0 .187.033.24.1.053.067.087.16.1.28-.787 0-1.487.393-2.1 1.18.6.187.987.313 1.16.38.56-.973 1.087-1.46 1.58-1.46.227 0 .36.067.4.2l.02.06c-.373 0-.767.493-1.18 1.48l2.86.92c.893-1.68 1.827-2.52 2.8-2.52.133 0 .24.033.32.1.08.067.133.167.16.3-1 0-1.92.76-2.76 2.28.72.187 1.167.293 1.34.32.787-1.56 1.493-2.34 2.12-2.34.227 0 .36.067.4.2l.02.06c-.44 0-.973.74-1.6 2.22.093.013.22.02.38.02 1.32 0 2.247-.393 2.78-1.18.227-.307.34-.567.34-.78 0-.6-.267-.9-.8-.9.12-.187.313-.28.58-.28.52 0 .86.26 1.02.78.04.16.06.313.06.46 0 .44-.187.873-.56 1.3-.653.72-1.66 1.08-3.02 1.08-.32 0-.633-.027-.94-.08-.587 1.507-1.093 3.247-1.52 5.22-.413 1.973-.62 3.733-.62 5.28 0 1.547.313 2.32.94 2.32-.133.267-.327.4-.58.4-1.04 0-1.56-1.14-1.56-3.42 0-1.347.213-2.947.64-4.8.427-1.867 1.007-3.593 1.74-5.18-.347-.067-.8-.18-1.36-.34-.587 1.147-1.207 2.827-1.86 5.04-.64 2.2-1.213 4.007-1.72 5.42-.493 1.413-.993 2.12-1.5 2.12-1.013 0-1.52-1.213-1.52-3.64 0-1.48.213-3.213.64-5.2.44-1.987 1.02-3.68 1.74-5.08zm-1.04 11.1c0 1.12.133 1.68.4 1.68.28 0 .62-.64 1.02-1.92.413-1.28.92-2.92 1.52-4.92.613-2 1.213-3.58 1.8-4.74-1.2-.373-2.14-.673-2.82-.9-.587 1.573-1.073 3.607-1.46 6.1-.307 2.013-.46 3.58-.46 4.7z" fill="#7F49C5" fill-opacity=".44" shape-rendering="crispEdges"/></g><defs><filter id="filter0_d_597_14" x="19.18" y="15" width="23.32" height="26.52" filterUnits="userSpaceOnUse" color-interpolation-filters="sRGB"><feFlood flood-opacity="0" result="BackgroundImageFix"/><feColorMatrix in="SourceAlpha" values="0 0 0 0 0 0 0 0 0 0 0 0 0 0 0 0 0 0 127 0" result="hardAlpha"/><feOffset dy="4"/><feGaussianBlur stdDeviation="1"/><feComposite in2="hardAlpha" operator="out"/><feColorMatrix values="0 0 0 0 0.498039 0 0 0 0 0.286275 0 0 0 0 0.772549 0 0 0 0.21 0"/><feBlend in2="BackgroundImageFix" result="effect1_dropShadow_597_14"/><feBlend in="SourceGraphic" in2="effect1_dropShadow_597_14" result="shape"/></filter><filter id="filter1_d_597_14" x=".9" y="4.64" width="32.28" height="24.9" filterUnits="userSpaceOnUse" color-interpolation-filters="sRGB"><feFlood flood-opacity="0" result="BackgroundImageFix"/><feColorMatrix in="SourceAlpha" values="0 0 0 0 0 0 0 0 0 0 0 0 0 0 0 0 0 0 127 0" result="hardAlpha"/><feOffset dy="4"/><feGaussianBlur stdDeviation="1"/><feComposite in2="hardAlpha" operator="out"/><feColorMatrix values="0 0 0 0 0.498039 0 0 0 0 0.286275 0 0 0 0 0.772549 0 0 0 0.21 0"/><feBlend in2="BackgroundImageFix" result="effect1_dropShadow_597_14"/><feBlend in="SourceGraphic" in2="effect1_dropShadow_597_14" result="shape"/></filter></defs></svg>