<svg width="129" height="40" fill="none" xmlns="http://www.w3.org/2000/svg"><g filter="url(#filter0_d_603_32)"><path d="M24.82 19.26l3.42.22c.64-1.453 1.46-2.18 2.46-2.18.187 0 .313.087.38.26l.02.08c-.813 0-1.453.593-1.92 1.78 1.347-.213 2.293-.787 2.84-1.72.213-.373.32-.673.32-.9 0-.533-.187-.8-.56-.8.08-.227.24-.34.48-.34.453 0 .68.313.68.94 0 .613-.247 1.213-.74 1.8-.72.867-1.787 1.373-3.2 1.52-.293.96-.533 2.16-.72 3.6a226.11 226.11 0 01-.32 2.42c.507-.36 1.38-.953 2.62-1.78 1.24-.827 2.047-1.367 2.42-1.62.6-2.173 1.373-3.973 2.32-5.4.96-1.427 1.967-2.14 3.02-2.14.36 0 .64.113.84.34.213.227.32.52.32.88 0 .973-.467 1.967-1.4 2.98-.933 1.013-2.233 2.107-3.9 3.28-.6 2.413-.9 4.747-.9 7 0 2 .287 3.493.86 4.48.453.773 1.067 1.16 1.84 1.16-.08.267-.267.4-.56.4-.893 0-1.613-.36-2.16-1.08-.827-1.067-1.24-2.787-1.24-5.16 0-1.84.24-3.773.72-5.8-3.013 2-4.647 3.087-4.9 3.26-.4 2.68-.913 4.507-1.54 5.48-.6.907-1.36 1.36-2.28 1.36-.427 0-.767-.147-1.02-.44-.253-.293-.38-.687-.38-1.18 0-1.347 1.287-2.993 3.86-4.94.573-3.533 1.087-5.887 1.54-7.06l-2.98-.22c-1.613 0-2.767.613-3.46 1.84-.333.613-.5 1.227-.5 1.84 0 .32.04.633.12.94.253.947.753 1.42 1.5 1.42 0 .107-.053.207-.16.3a.514.514 0 01-.38.14c-.853 0-1.447-.44-1.78-1.32a3.703 3.703 0 01-.22-1.32c0-.493.14-1.053.42-1.68.547-1.253 1.467-2.067 2.76-2.44.453-.133.94-.2 1.46-.2zm14.16-3.06c0-.507-.213-.76-.64-.76-.693 0-1.387.567-2.08 1.7-.68 1.12-1.273 2.573-1.78 4.36 1.427-1.04 2.533-1.987 3.32-2.84.787-.867 1.18-1.687 1.18-2.46zM23.16 31.98c0 .733.28 1.1.84 1.1.573 0 1.033-.447 1.38-1.34s.673-2.2.98-3.92c-2.133 1.653-3.2 3.04-3.2 4.16z" fill="#7F49C5" fill-opacity=".99" shape-rendering="crispEdges"/></g><g filter="url(#filter1_d_603_32)"><path d="M19.12 6.96l-1.22-.38c-.64.987-1.32 2.76-2.04 5.32-.293 1.013-.62 2.087-.98 3.22a23.933 23.933 0 01-1.22 3.16c-.453.973-.98 1.86-1.58 2.66a6.428 6.428 0 01-2.2 1.9c-.88.467-1.867.7-2.96.7-1.96 0-3.387-.7-4.28-2.1a4.695 4.695 0 01-.74-2.54c0-.373.04-.753.12-1.14.28-1.293.913-2.213 1.9-2.76a3.48 3.48 0 011.74-.44c1.373 0 2.3.533 2.78 1.6.2.44.3.893.3 1.36 0 .453-.093.913-.28 1.38-.453 1.12-1.193 1.68-2.22 1.68a.741.741 0 01-.4-.1.718.718 0 01-.24-.34c.36 0 .7-.093 1.02-.28.533-.32.947-.9 1.24-1.74.093-.28.14-.507.14-.68 0-.187-.013-.393-.04-.62A2.616 2.616 0 007.7 16c-.147-.307-.4-.553-.76-.74-.36-.187-.787-.28-1.28-.28-1.267 0-2.2.56-2.8 1.68-.347.64-.52 1.247-.52 1.82s.06 1.087.18 1.54c.347 1.267 1.073 2.14 2.18 2.62.52.227 1.18.34 1.98.34s1.607-.227 2.42-.68a6.532 6.532 0 002.12-1.8 15.99 15.99 0 001.62-2.58c.48-.947.913-1.967 1.3-3.06.4-1.107.76-2.153 1.08-3.14.853-2.533 1.593-4.3 2.22-5.3-2.013-.627-3.473-.94-4.38-.94-1.72 0-3 .653-3.84 1.96-.48.747-.72 1.513-.72 2.3 0 .227.027.46.08.7.147.88.54 1.407 1.18 1.58.12.027.24.04.36.04-.08.28-.3.42-.66.42-.813 0-1.387-.433-1.72-1.3A3.795 3.795 0 017.5 9.8c0-.507.133-1.073.4-1.7.56-1.347 1.547-2.267 2.96-2.76.667-.227 1.427-.34 2.28-.34.867 0 2.387.347 4.56 1.04.653-.933 1.4-1.4 2.24-1.4.107 0 .187.033.24.1.053.067.087.16.1.28-.787 0-1.487.393-2.1 1.18.6.187.987.313 1.16.38.56-.973 1.087-1.46 1.58-1.46.227 0 .36.067.4.2l.02.06c-.373 0-.767.493-1.18 1.48l2.86.92c.893-1.68 1.827-2.52 2.8-2.52.133 0 .24.033.32.1.08.067.133.167.16.3-1 0-1.92.76-2.76 2.28.72.187 1.167.293 1.34.32.787-1.56 1.493-2.34 2.12-2.34.227 0 .36.067.4.2l.02.06c-.44 0-.973.74-1.6 2.22.093.013.22.02.38.02 1.32 0 2.247-.393 2.78-1.18.227-.307.34-.567.34-.78 0-.6-.267-.9-.8-.9.12-.187.313-.28.58-.28.52 0 .86.26 1.02.78.04.16.06.313.06.46 0 .44-.187.873-.56 1.3-.653.72-1.66 1.08-3.02 1.08-.32 0-.633-.027-.94-.08-.587 1.507-1.093 3.247-1.52 5.22-.413 1.973-.62 3.733-.62 5.28 0 1.547.313 2.32.94 2.32-.133.267-.327.4-.58.4-1.04 0-1.56-1.14-1.56-3.42 0-1.347.213-2.947.64-4.8.427-1.867 1.007-3.593 1.74-5.18-.347-.067-.8-.18-1.36-.34-.587 1.147-1.207 2.827-1.86 5.04-.64 2.2-1.213 4.007-1.72 5.42-.493 1.413-.993 2.12-1.5 2.12-1.013 0-1.52-1.213-1.52-3.64 0-1.48.213-3.213.64-5.2.44-1.987 1.02-3.68 1.74-5.08zm-1.04 11.1c0 1.12.133 1.68.4 1.68.28 0 .62-.64 1.02-1.92.413-1.28.92-2.92 1.52-4.92.613-2 1.213-3.58 1.8-4.74-1.2-.373-2.14-.673-2.82-.9-.587 1.573-1.073 3.607-1.46 6.1-.307 2.013-.46 3.58-.46 4.7z" fill="#7F49C5" fill-opacity=".99" shape-rendering="crispEdges"/></g><path d="M66.066 13.645l-1.074-.335c-.563.869-1.162 2.43-1.795 4.682-.258.892-.546 1.836-.863 2.834a21.061 21.061 0 01-1.073 2.78 13.113 13.113 0 01-1.39 2.341 5.656 5.656 0 01-1.937 1.672c-.774.41-1.642.616-2.604.616-1.725 0-2.98-.616-3.767-1.848a4.132 4.132 0 01-.651-2.235c0-.329.035-.663.106-1.003.246-1.138.803-1.948 1.672-2.429a3.062 3.062 0 011.53-.387c1.21 0 2.025.47 2.447 1.408.176.387.264.786.264 1.197 0 .399-.082.803-.246 1.214-.4.986-1.05 1.478-1.954 1.478a.653.653 0 01-.352-.088.631.631 0 01-.211-.299c.317 0 .616-.082.898-.246.469-.282.833-.792 1.09-1.531a2 2 0 00.124-.599c0-.164-.012-.346-.035-.545a2.302 2.302 0 00-.229-.722c-.13-.27-.352-.487-.669-.651-.317-.165-.692-.247-1.126-.247-1.115 0-1.936.493-2.464 1.479-.305.563-.458 1.097-.458 1.601 0 .505.053.957.159 1.356.305 1.114.944 1.883 1.918 2.305.458.2 1.038.3 1.742.3s1.414-.2 2.13-.599a5.748 5.748 0 001.866-1.584 14.07 14.07 0 001.425-2.27c.423-.834.804-1.731 1.144-2.693.352-.974.669-1.895.95-2.763.752-2.23 1.403-3.784 1.954-4.664-1.772-.552-3.056-.828-3.854-.828-1.514 0-2.64.575-3.38 1.725-.422.657-.633 1.332-.633 2.024 0 .2.023.405.07.616.13.775.476 1.238 1.039 1.39.105.024.211.036.317.036-.07.246-.264.37-.581.37-.716 0-1.22-.382-1.514-1.145a3.34 3.34 0 01-.211-1.214c0-.446.117-.944.352-1.496.493-1.185 1.361-1.995 2.605-2.429.587-.2 1.255-.299 2.006-.299.763 0 2.1.305 4.013.915.575-.821 1.232-1.232 1.971-1.232.094 0 .164.03.211.088a.467.467 0 01.088.247c-.692 0-1.308.346-1.848 1.038.528.164.869.276 1.021.334.493-.856.957-1.284 1.39-1.284.2 0 .317.058.353.176l.017.052c-.328 0-.675.434-1.038 1.303l2.517.81c.786-1.479 1.607-2.218 2.464-2.218.117 0 .21.03.281.088.07.059.118.146.141.264-.88 0-1.69.669-2.429 2.006.634.165 1.027.258 1.18.282.692-1.373 1.313-2.06 1.865-2.06.2 0 .317.06.352.177l.018.052c-.388 0-.857.652-1.408 1.954.082.012.193.018.334.018 1.162 0 1.977-.346 2.446-1.039.2-.27.3-.498.3-.686 0-.528-.235-.792-.704-.792.105-.165.275-.247.51-.247.458 0 .757.23.898.687.035.14.052.276.052.405 0 .387-.164.768-.492 1.144-.575.633-1.461.95-2.658.95a4.91 4.91 0 01-.827-.07c-.516 1.326-.962 2.857-1.338 4.593-.364 1.737-.545 3.285-.545 4.647 0 1.36.275 2.041.827 2.041-.118.235-.288.352-.51.352-.916 0-1.373-1.003-1.373-3.01 0-1.184.187-2.593.563-4.223a23.113 23.113 0 011.531-4.559 14.648 14.648 0 01-1.197-.299c-.516 1.01-1.062 2.487-1.637 4.435-.563 1.936-1.067 3.526-1.513 4.77-.434 1.244-.874 1.865-1.32 1.865-.892 0-1.338-1.067-1.338-3.203 0-1.302.188-2.828.563-4.576.388-1.748.898-3.238 1.532-4.47zm-.916 9.768c0 .985.118 1.478.352 1.478.247 0 .546-.563.898-1.69.364-1.126.81-2.569 1.338-4.329.54-1.76 1.067-3.15 1.584-4.171a136.71 136.71 0 01-2.482-.792c-.516 1.384-.945 3.174-1.285 5.368-.27 1.771-.405 3.15-.405 4.136zm8.772 2.605c-.926 0-1.39-.698-1.39-2.095 0-.81.211-1.695.634-2.657.586-1.303 1.331-2.153 2.235-2.552.317-.13.633-.194.95-.194.329 0 .587.094.775.282a.875.875 0 01.281.633c0 .106-.058.159-.176.159-.105-.012-.158-.07-.158-.176 0-.106-.059-.2-.176-.282-.106-.094-.264-.14-.475-.14-.74 0-1.408.662-2.007 1.988-.563 1.232-.845 2.4-.845 3.502 0 .68.147 1.021.44 1.021.306 0 .67-.252 1.092-.757.434-.516.833-1.114 1.197-1.795.786-1.431 1.25-2.352 1.39-2.763.14-.41.293-.616.458-.616.293 0 .44.246.44.74 0 .152-.018.328-.053.527-.388 1.878-.599 2.963-.634 3.256a8.997 8.997 0 00-.035.634c0 .563.135.845.405.845.305 0 .733-.405 1.285-1.215a20.18 20.18 0 001.425-2.429l.599-1.214h.475c-.07.14-.165.334-.282.58-.106.235-.323.664-.651 1.286-.329.61-.645 1.15-.95 1.619-.294.47-.628.897-1.004 1.285-.363.375-.68.563-.95.563-.868 0-1.302-.634-1.302-1.901 0-.422.046-.915.14-1.478h-.123c-1.197 2.229-2.2 3.344-3.01 3.344zm12.346-6.442c.293 0 .44.246.44.74 0 .351-.194 1.372-.581 3.062a103.1 103.1 0 01-1.039 4.17c-.305 1.104-.592 1.92-.862 2.447-.27.54-.598 1.08-.986 1.62-.375.54-.792.909-1.25 1.108-.457.2-.985.3-1.583.3-1.115 0-1.672-.57-1.672-1.708 0-.669.252-1.39.757-2.165.727-1.138 1.7-1.889 2.921-2.252.434-.13.886-.194 1.355-.194.082 0 .124.082.124.246 0 .165-.041.247-.124.247-1.384 0-2.546.545-3.484 1.637-.693.82-1.039 1.613-1.039 2.376 0 .762.293 1.202.88 1.32l.282.017c.962 0 1.725-.399 2.288-1.197.575-.81 1.026-1.83 1.355-3.062.329-1.244.75-3.192 1.267-5.843h-.14c-1.268 2.382-2.312 3.573-3.133 3.573-.927 0-1.39-.698-1.39-2.095 0-.81.21-1.695.633-2.657.586-1.303 1.331-2.153 2.235-2.552.317-.13.634-.194.95-.194.329 0 .587.094.775.282a.875.875 0 01.281.633c0 .106-.058.159-.176.159-.105-.012-.158-.07-.158-.176 0-.106-.059-.2-.176-.282-.106-.094-.264-.14-.475-.14-.74 0-1.408.662-2.007 1.988-.563 1.232-.844 2.4-.844 3.502 0 .68.146 1.021.44 1.021.387 0 .891-.457 1.513-1.373.939-1.384 1.672-2.74 2.2-4.065.141-.329.282-.493.423-.493zm3.998-4.118c.27 0 .405.181.405.545 0 .364-.176.657-.528.88-.176.117-.329.176-.458.176-.188 0-.299-.059-.334-.176l-.018-.053c.106 0 .182-.111.229-.334.047-.235.117-.463.211-.686.106-.235.27-.352.493-.352zm-1.126 10.12c.305 0 .733-.405 1.284-1.215a20.059 20.059 0 001.426-2.429l.598-1.214h.476c-.07.14-.165.334-.282.58-.106.235-.323.664-.651 1.286-.329.61-.645 1.15-.95 1.619-.294.47-.628.897-1.004 1.285-.364.375-.68.563-.95.563-.868 0-1.303-.563-1.303-1.69 0-.845.24-2.217.722-4.118l.106-.458a3.9 3.9 0 00.105-.405c.035-.176.07-.334.106-.475.059-.246.164-.37.317-.37.21 0 .363.153.457.458.047.141.07.311.07.51 0 .2-.023.411-.07.634a39.1 39.1 0 01-.229.95c-.105.423-.187.77-.246 1.039-.059.27-.123.598-.194.986a8.9 8.9 0 00-.193 1.724c0 .493.135.74.405.74zm3.704-2.077c0 1.373.476 2.059 1.426 2.059.375 0 .768-.164 1.18-.493.421-.34.803-.745 1.143-1.214.751-1.08 1.279-1.96 1.584-2.64l.229-.493h.475c-.2.47-.493 1.05-.88 1.742-.387.68-.757 1.256-1.109 1.725-.352.47-.768.898-1.25 1.285-.48.375-.938.563-1.372.563-1.22 0-1.995-.557-2.323-1.672-.106-.352-.159-.792-.159-1.32 0-.54.165-1.197.493-1.971.481-1.15 1.138-1.924 1.971-2.323.329-.153.651-.229.968-.229.329 0 .587.088.775.264a.988.988 0 01.334.74c0 .27-.03.521-.088.756a1.352 1.352 0 01-.37.634.825.825 0 01-.598.264c-.094 0-.164-.065-.211-.194.094 0 .217-.164.37-.493.164-.34.246-.674.246-1.003 0-.328-.14-.493-.422-.493-.61 0-1.168.51-1.672 1.531-.493 1.021-.74 2.013-.74 2.975zm14.373-11.845c.528 0 .792.352.792 1.056 0 .176-.017.381-.053.616-.176 1.115-.639 2.264-1.39 3.45-.54.856-1.05 1.396-1.531 1.619a240.88 240.88 0 00-.616 3.45h.123c.986-2.195 1.983-3.292 2.992-3.292.364 0 .645.112.845.335.211.223.317.528.317.915s-.153 1.238-.458 2.552c-.305 1.302-.458 2.212-.458 2.728 0 .762.141 1.144.423 1.144 0 .082-.053.164-.159.246a.582.582 0 01-.369.123c-.681 0-1.021-.534-1.021-1.601 0-.657.17-1.631.51-2.922.352-1.302.528-2.141.528-2.517 0-.375-.146-.563-.44-.563-.34 0-.715.288-1.126.863-.411.575-.792 1.308-1.144 2.2-.587 1.431-1.027 2.628-1.32 3.59-.07.235-.17.352-.299.352-.211 0-.37-.13-.475-.387a1.127 1.127 0 01-.088-.44c0-.164.047-.458.14-.88.094-.434.253-1.191.476-2.27.211-1.08.393-1.972.545-2.676a208.3 208.3 0 01.528-2.393c.2-.892.387-1.614.563-2.165a16.57 16.57 0 01.634-1.62c.446-1.008.956-1.513 1.531-1.513zm.387 1.091c0-.375-.105-.604-.316-.686-.693 0-1.408 1.936-2.148 5.808.47-.329.957-.986 1.461-1.971.669-1.326 1.003-2.376 1.003-3.15zm3.787 13.27c-.927 0-1.39-.697-1.39-2.094 0-.81.211-1.695.633-2.657.587-1.303 1.332-2.153 2.236-2.552a2.48 2.48 0 01.95-.194c.329 0 .587.094.774.282a.875.875 0 01.282.633c0 .106-.059.159-.176.159-.106-.012-.158-.07-.158-.176 0-.106-.059-.2-.176-.282-.106-.094-.264-.14-.476-.14-.739 0-1.408.662-2.006 1.988-.563 1.232-.845 2.4-.845 3.502 0 .68.147 1.021.44 1.021.305 0 .669-.252 1.091-.757.435-.516.834-1.114 1.197-1.795.786-1.431 1.25-2.352 1.391-2.763.14-.41.293-.616.457-.616.294 0 .44.246.44.74 0 .152-.017.328-.053.527-.387 1.878-.598 2.963-.633 3.256a8.664 8.664 0 00-.035.634c0 .563.135.845.404.845.306 0 .734-.405 1.285-1.215a20.059 20.059 0 001.426-2.429l.598-1.214h.475c-.07.14-.164.334-.281.58-.106.235-.323.664-.651 1.286-.329.61-.646 1.15-.951 1.619a7.66 7.66 0 01-1.003 1.285c-.364.375-.68.563-.95.563-.869 0-1.303-.634-1.303-1.901 0-.422.047-.915.141-1.478h-.123c-1.197 2.229-2.2 3.344-3.01 3.344zm9.512-10.56c.27 0 .405.182.405.546 0 .364-.176.657-.528.88-.176.117-.329.176-.458.176-.188 0-.299-.059-.334-.176l-.018-.053c.106 0 .182-.111.229-.334.047-.235.117-.463.211-.686.106-.235.27-.352.493-.352zm-1.127 10.12c.305 0 .734-.404 1.285-1.214a20.059 20.059 0 001.426-2.429l.598-1.214h.475c-.07.14-.164.334-.281.58-.106.235-.323.664-.651 1.286-.329.61-.646 1.15-.951 1.619-.293.47-.628.897-1.003 1.285-.364.375-.681.563-.95.563-.869 0-1.303-.563-1.303-1.69 0-.845.241-2.217.722-4.118.047-.2.082-.352.105-.458a3.65 3.65 0 00.106-.405c.035-.176.07-.334.106-.475.058-.246.164-.37.316-.37.212 0 .364.153.458.458.047.141.07.311.07.51 0 .2-.023.411-.07.634a39.26 39.26 0 01-.229.95c-.105.423-.188.77-.246 1.039-.059.27-.123.598-.194.986a8.903 8.903 0 00-.193 1.724c0 .493.134.74.404.74zm3.036.423c-.328 0-.493-.252-.493-.757 0-.27.329-2.235.986-5.896.047-.246.153-.37.317-.37.211 0 .369.153.475.458.059.165.088.346.088.546a3 3 0 01-.07.616l-.282 1.443h.088c1.009-2.347 1.936-3.52 2.781-3.52.469 0 .78.229.933.686.058.176.088.382.088.616 0 .223-.065.47-.194.74-.223.457-.557.686-1.003.686a.356.356 0 01-.229-.07.332.332 0 01-.088-.194c.094 0 .217-.17.37-.51.152-.352.24-.675.264-.968.023-.294-.077-.464-.3-.51-.41 0-.897.533-1.46 1.6a22.53 22.53 0 00-1.356 3.063c-.34.974-.539 1.608-.598 1.901-.059.293-.164.44-.317.44z" fill="#7F49C5"/><path d="M46 6v27.408" stroke="#7F49C5" stroke-linecap="round"/><defs><filter id="filter0_d_603_32" x="19.18" y="15" width="21.32" height="23.52" filterUnits="userSpaceOnUse" color-interpolation-filters="sRGB"><feFlood flood-opacity="0" result="BackgroundImageFix"/><feColorMatrix in="SourceAlpha" values="0 0 0 0 0 0 0 0 0 0 0 0 0 0 0 0 0 0 127 0" result="hardAlpha"/><feOffset dy="2"/><feGaussianBlur stdDeviation=".5"/><feComposite in2="hardAlpha" operator="out"/><feColorMatrix values="0 0 0 0 0.498039 0 0 0 0 0.286275 0 0 0 0 0.772549 0 0 0 0.21 0"/><feBlend in2="BackgroundImageFix" result="effect1_dropShadow_603_32"/><feBlend in="SourceGraphic" in2="effect1_dropShadow_603_32" result="shape"/></filter><filter id="filter1_d_603_32" x=".9" y="4.64" width="30.28" height="22.9" filterUnits="userSpaceOnUse" color-interpolation-filters="sRGB"><feFlood flood-opacity="0" result="BackgroundImageFix"/><feColorMatrix in="SourceAlpha" values="0 0 0 0 0 0 0 0 0 0 0 0 0 0 0 0 0 0 127 0" result="hardAlpha"/><feOffset dy="3"/><feGaussianBlur stdDeviation=".5"/><feComposite in2="hardAlpha" operator="out"/><feColorMatrix values="0 0 0 0 0.498039 0 0 0 0 0.286275 0 0 0 0 0.772549 0 0 0 0.21 0"/><feBlend in2="BackgroundImageFix" result="effect1_dropShadow_603_32"/><feBlend in="SourceGraphic" in2="effect1_dropShadow_603_32" result="shape"/></filter></defs></svg>