<svg width="129" height="40" viewBox="0 0 129 40" fill="none" xmlns="http://www.w3.org/2000/svg">
<g filter="url(#filter0_d_603_32)">
<path d="M24.82 19.26L28.24 19.48C28.88 18.0267 29.7 17.3 30.7 17.3C30.8867 17.3 31.0133 17.3867 31.08 17.56L31.1 17.64C30.2867 17.64 29.6467 18.2333 29.18 19.42C30.5267 19.2067 31.4733 18.6333 32.02 17.7C32.2333 17.3267 32.34 17.0267 32.34 16.8C32.34 16.2667 32.1533 16 31.78 16C31.86 15.7733 32.02 15.66 32.26 15.66C32.7133 15.66 32.94 15.9733 32.94 16.6C32.94 17.2133 32.6933 17.8133 32.2 18.4C31.48 19.2667 30.4133 19.7733 29 19.92C28.7067 20.88 28.4667 22.08 28.28 23.52C28.0933 24.96 27.9867 25.7667 27.96 25.94C28.4667 25.58 29.34 24.9867 30.58 24.16C31.82 23.3333 32.6267 22.7933 33 22.54C33.6 20.3667 34.3733 18.5667 35.32 17.14C36.28 15.7133 37.2867 15 38.34 15C38.7 15 38.98 15.1133 39.18 15.34C39.3933 15.5667 39.5 15.86 39.5 16.22C39.5 17.1933 39.0333 18.1867 38.1 19.2C37.1667 20.2133 35.8667 21.3067 34.2 22.48C33.6 24.8933 33.3 27.2267 33.3 29.48C33.3 31.48 33.5867 32.9733 34.16 33.96C34.6133 34.7333 35.2267 35.12 36 35.12C35.92 35.3867 35.7333 35.52 35.44 35.52C34.5467 35.52 33.8267 35.16 33.28 34.44C32.4533 33.3733 32.04 31.6533 32.04 29.28C32.04 27.44 32.28 25.5067 32.76 23.48C29.7467 25.48 28.1133 26.5667 27.86 26.74C27.46 29.42 26.9467 31.2467 26.32 32.22C25.72 33.1267 24.96 33.58 24.04 33.58C23.6133 33.58 23.2733 33.4333 23.02 33.14C22.7667 32.8467 22.64 32.4533 22.64 31.96C22.64 30.6133 23.9267 28.9667 26.5 27.02C27.0733 23.4867 27.5867 21.1333 28.04 19.96L25.06 19.74C23.4467 19.74 22.2933 20.3533 21.6 21.58C21.2667 22.1933 21.1 22.8067 21.1 23.42C21.1 23.74 21.14 24.0533 21.22 24.36C21.4733 25.3067 21.9733 25.78 22.72 25.78C22.72 25.8867 22.6667 25.9867 22.56 26.08C22.4667 26.1733 22.34 26.22 22.18 26.22C21.3267 26.22 20.7333 25.78 20.4 24.9C20.2533 24.5133 20.18 24.0733 20.18 23.58C20.18 23.0867 20.32 22.5267 20.6 21.9C21.1467 20.6467 22.0667 19.8333 23.36 19.46C23.8133 19.3267 24.3 19.26 24.82 19.26ZM38.98 16.2C38.98 15.6933 38.7667 15.44 38.34 15.44C37.6467 15.44 36.9533 16.0067 36.26 17.14C35.58 18.26 34.9867 19.7133 34.48 21.5C35.9067 20.46 37.0133 19.5133 37.8 18.66C38.5867 17.7933 38.98 16.9733 38.98 16.2ZM23.16 31.98C23.16 32.7133 23.44 33.08 24 33.08C24.5733 33.08 25.0333 32.6333 25.38 31.74C25.7267 30.8467 26.0533 29.54 26.36 27.82C24.2267 29.4733 23.16 30.86 23.16 31.98Z" fill="#7F49C5" fill-opacity="0.99" shape-rendering="crispEdges"/>
</g>
<g filter="url(#filter1_d_603_32)">
<path d="M19.12 6.96L17.9 6.58C17.26 7.56667 16.58 9.34 15.86 11.9C15.5667 12.9133 15.24 13.9867 14.88 15.12C14.5333 16.24 14.1267 17.2933 13.66 18.28C13.2067 19.2533 12.68 20.14 12.08 20.94C11.4933 21.74 10.76 22.3733 9.88 22.84C9 23.3067 8.01333 23.54 6.92 23.54C4.96 23.54 3.53333 22.84 2.64 21.44C2.14667 20.6533 1.9 19.8067 1.9 18.9C1.9 18.5267 1.94 18.1467 2.02 17.76C2.3 16.4667 2.93333 15.5467 3.92 15C4.44 14.7067 5.02 14.56 5.66 14.56C7.03333 14.56 7.96 15.0933 8.44 16.16C8.64 16.6 8.74 17.0533 8.74 17.52C8.74 17.9733 8.64667 18.4333 8.46 18.9C8.00667 20.02 7.26667 20.58 6.24 20.58C6.08 20.58 5.94667 20.5467 5.84 20.48C5.73333 20.4 5.65333 20.2867 5.6 20.14C5.96 20.14 6.3 20.0467 6.62 19.86C7.15333 19.54 7.56667 18.96 7.86 18.12C7.95333 17.84 8 17.6133 8 17.44C8 17.2533 7.98667 17.0467 7.96 16.82C7.93333 16.58 7.84667 16.3067 7.7 16C7.55333 15.6933 7.3 15.4467 6.94 15.26C6.58 15.0733 6.15333 14.98 5.66 14.98C4.39333 14.98 3.46 15.54 2.86 16.66C2.51333 17.3 2.34 17.9067 2.34 18.48C2.34 19.0533 2.4 19.5667 2.52 20.02C2.86667 21.2867 3.59333 22.16 4.7 22.64C5.22 22.8667 5.88 22.98 6.68 22.98C7.48 22.98 8.28667 22.7533 9.1 22.3C9.92667 21.86 10.6333 21.26 11.22 20.5C11.82 19.7267 12.36 18.8667 12.84 17.92C13.32 16.9733 13.7533 15.9533 14.14 14.86C14.54 13.7533 14.9 12.7067 15.22 11.72C16.0733 9.18667 16.8133 7.42 17.44 6.42C15.4267 5.79333 13.9667 5.48 13.06 5.48C11.34 5.48 10.06 6.13333 9.22 7.44C8.74 8.18667 8.5 8.95333 8.5 9.74C8.5 9.96667 8.52667 10.2 8.58 10.44C8.72667 11.32 9.12 11.8467 9.76 12.02C9.88 12.0467 10 12.06 10.12 12.06C10.04 12.34 9.82 12.48 9.46 12.48C8.64667 12.48 8.07333 12.0467 7.74 11.18C7.58 10.7667 7.5 10.3067 7.5 9.8C7.5 9.29333 7.63333 8.72667 7.9 8.1C8.46 6.75333 9.44667 5.83333 10.86 5.34C11.5267 5.11333 12.2867 5 13.14 5C14.0067 5 15.5267 5.34667 17.7 6.04C18.3533 5.10667 19.1 4.64 19.94 4.64C20.0467 4.64 20.1267 4.67333 20.18 4.74C20.2333 4.80667 20.2667 4.9 20.28 5.02C19.4933 5.02 18.7933 5.41333 18.18 6.2C18.78 6.38667 19.1667 6.51333 19.34 6.58C19.9 5.60667 20.4267 5.12 20.92 5.12C21.1467 5.12 21.28 5.18667 21.32 5.32L21.34 5.38C20.9667 5.38 20.5733 5.87333 20.16 6.86L23.02 7.78C23.9133 6.1 24.8467 5.26 25.82 5.26C25.9533 5.26 26.06 5.29333 26.14 5.36C26.22 5.42667 26.2733 5.52667 26.3 5.66C25.3 5.66 24.38 6.42 23.54 7.94C24.26 8.12667 24.7067 8.23333 24.88 8.26C25.6667 6.7 26.3733 5.92 27 5.92C27.2267 5.92 27.36 5.98667 27.4 6.12L27.42 6.18C26.98 6.18 26.4467 6.92 25.82 8.4C25.9133 8.41333 26.04 8.42 26.2 8.42C27.52 8.42 28.4467 8.02667 28.98 7.24C29.2067 6.93333 29.32 6.67333 29.32 6.46C29.32 5.86 29.0533 5.56 28.52 5.56C28.64 5.37333 28.8333 5.28 29.1 5.28C29.62 5.28 29.96 5.54 30.12 6.06C30.16 6.22 30.18 6.37333 30.18 6.52C30.18 6.96 29.9933 7.39333 29.62 7.82C28.9667 8.54 27.96 8.9 26.6 8.9C26.28 8.9 25.9667 8.87333 25.66 8.82C25.0733 10.3267 24.5667 12.0667 24.14 14.04C23.7267 16.0133 23.52 17.7733 23.52 19.32C23.52 20.8667 23.8333 21.64 24.46 21.64C24.3267 21.9067 24.1333 22.04 23.88 22.04C22.84 22.04 22.32 20.9 22.32 18.62C22.32 17.2733 22.5333 15.6733 22.96 13.82C23.3867 11.9533 23.9667 10.2267 24.7 8.64C24.3533 8.57333 23.9 8.46 23.34 8.3C22.7533 9.44667 22.1333 11.1267 21.48 13.34C20.84 15.54 20.2667 17.3467 19.76 18.76C19.2667 20.1733 18.7667 20.88 18.26 20.88C17.2467 20.88 16.74 19.6667 16.74 17.24C16.74 15.76 16.9533 14.0267 17.38 12.04C17.82 10.0533 18.4 8.36 19.12 6.96ZM18.08 18.06C18.08 19.18 18.2133 19.74 18.48 19.74C18.76 19.74 19.1 19.1 19.5 17.82C19.9133 16.54 20.42 14.9 21.02 12.9C21.6333 10.9 22.2333 9.32 22.82 8.16C21.62 7.78667 20.68 7.48667 20 7.26C19.4133 8.83333 18.9267 10.8667 18.54 13.36C18.2333 15.3733 18.08 16.94 18.08 18.06Z" fill="#7F49C5" fill-opacity="0.99" shape-rendering="crispEdges"/>
</g>
<path d="M66.0656 13.6448L64.992 13.3104C64.4288 14.1787 63.8304 15.7392 63.1968 17.992C62.9387 18.8837 62.6512 19.8283 62.3344 20.8256C62.0293 21.8112 61.6715 22.7381 61.2608 23.6064C60.8619 24.4629 60.3984 25.2432 59.8704 25.9472C59.3541 26.6512 58.7088 27.2085 57.9344 27.6192C57.16 28.0299 56.2917 28.2352 55.3296 28.2352C53.6048 28.2352 52.3493 27.6192 51.5632 26.3872C51.1291 25.6949 50.912 24.9499 50.912 24.152C50.912 23.8235 50.9472 23.4891 51.0176 23.1488C51.264 22.0107 51.8213 21.2011 52.6896 20.72C53.1472 20.4619 53.6576 20.3328 54.2208 20.3328C55.4293 20.3328 56.2448 20.8021 56.6672 21.7408C56.8432 22.128 56.9312 22.5269 56.9312 22.9376C56.9312 23.3365 56.8491 23.7413 56.6848 24.152C56.2859 25.1376 55.6347 25.6304 54.7312 25.6304C54.5904 25.6304 54.4731 25.6011 54.3792 25.5424C54.2853 25.472 54.2149 25.3723 54.168 25.2432C54.4848 25.2432 54.784 25.1611 55.0656 24.9968C55.5349 24.7152 55.8987 24.2048 56.1568 23.4656C56.2389 23.2192 56.28 23.0197 56.28 22.8672C56.28 22.7029 56.2683 22.5211 56.2448 22.3216C56.2213 22.1104 56.1451 21.8699 56.016 21.6C55.8869 21.3301 55.664 21.1131 55.3472 20.9488C55.0304 20.7845 54.6549 20.7024 54.2208 20.7024C53.1061 20.7024 52.2848 21.1952 51.7568 22.1808C51.4517 22.744 51.2992 23.2779 51.2992 23.7824C51.2992 24.2869 51.352 24.7387 51.4576 25.1376C51.7627 26.2523 52.4021 27.0208 53.376 27.4432C53.8336 27.6427 54.4144 27.7424 55.1184 27.7424C55.8224 27.7424 56.5323 27.5429 57.248 27.144C57.9755 26.7568 58.5973 26.2288 59.1136 25.56C59.6416 24.8795 60.1168 24.1227 60.5392 23.2896C60.9616 22.4565 61.3429 21.5589 61.6832 20.5968C62.0352 19.6229 62.352 18.7019 62.6336 17.8336C63.3845 15.6043 64.0357 14.0496 64.5872 13.1696C62.8155 12.6181 61.5307 12.3424 60.7328 12.3424C59.2192 12.3424 58.0928 12.9173 57.3536 14.0672C56.9312 14.7243 56.72 15.3989 56.72 16.0912C56.72 16.2907 56.7435 16.496 56.7904 16.7072C56.9195 17.4816 57.2656 17.9451 57.8288 18.0976C57.9344 18.1211 58.04 18.1328 58.1456 18.1328C58.0752 18.3792 57.8816 18.5024 57.5648 18.5024C56.8491 18.5024 56.3445 18.1211 56.0512 17.3584C55.9104 16.9947 55.84 16.5899 55.84 16.144C55.84 15.6981 55.9573 15.1995 56.192 14.648C56.6848 13.4629 57.5531 12.6533 58.7968 12.2192C59.3835 12.0197 60.0523 11.92 60.8032 11.92C61.5659 11.92 62.9035 12.2251 64.816 12.8352C65.3909 12.0139 66.048 11.6032 66.7872 11.6032C66.8811 11.6032 66.9515 11.6325 66.9984 11.6912C67.0453 11.7499 67.0747 11.832 67.0864 11.9376C66.3941 11.9376 65.7781 12.2837 65.2384 12.976C65.7664 13.1403 66.1067 13.2517 66.2592 13.3104C66.752 12.4539 67.2155 12.0256 67.6496 12.0256C67.8491 12.0256 67.9664 12.0843 68.0016 12.2016L68.0192 12.2544C67.6907 12.2544 67.3445 12.6885 66.9808 13.5568L69.4976 14.3664C70.2837 12.888 71.1051 12.1488 71.9616 12.1488C72.0789 12.1488 72.1728 12.1781 72.2432 12.2368C72.3136 12.2955 72.3605 12.3835 72.384 12.5008C71.504 12.5008 70.6944 13.1696 69.9552 14.5072C70.5888 14.6715 70.9819 14.7653 71.1344 14.7888C71.8267 13.416 72.4485 12.7296 73 12.7296C73.1995 12.7296 73.3168 12.7883 73.352 12.9056L73.3696 12.9584C72.9824 12.9584 72.5131 13.6096 71.9616 14.912C72.0437 14.9237 72.1552 14.9296 72.296 14.9296C73.4576 14.9296 74.2731 14.5835 74.7424 13.8912C74.9419 13.6213 75.0416 13.3925 75.0416 13.2048C75.0416 12.6768 74.8069 12.4128 74.3376 12.4128C74.4432 12.2485 74.6133 12.1664 74.848 12.1664C75.3056 12.1664 75.6048 12.3952 75.7456 12.8528C75.7808 12.9936 75.7984 13.1285 75.7984 13.2576C75.7984 13.6448 75.6341 14.0261 75.3056 14.4016C74.7307 15.0352 73.8448 15.352 72.648 15.352C72.3664 15.352 72.0907 15.3285 71.8208 15.2816C71.3045 16.6075 70.8587 18.1387 70.4832 19.8752C70.1195 21.6117 69.9376 23.1605 69.9376 24.5216C69.9376 25.8827 70.2133 26.5632 70.7648 26.5632C70.6475 26.7979 70.4773 26.9152 70.2544 26.9152C69.3392 26.9152 68.8816 25.912 68.8816 23.9056C68.8816 22.7205 69.0693 21.3125 69.4448 19.6816C69.8203 18.0389 70.3307 16.5195 70.976 15.1232C70.6709 15.0645 70.272 14.9648 69.7792 14.824C69.2629 15.8331 68.7173 17.3115 68.1424 19.2592C67.5792 21.1952 67.0747 22.7851 66.6288 24.0288C66.1947 25.2725 65.7547 25.8944 65.3088 25.8944C64.4171 25.8944 63.9712 24.8267 63.9712 22.6912C63.9712 21.3888 64.1589 19.8635 64.5344 18.1152C64.9216 16.3669 65.432 14.8768 66.0656 13.6448ZM65.1504 23.4128C65.1504 24.3984 65.2677 24.8912 65.5024 24.8912C65.7488 24.8912 66.048 24.328 66.4 23.2016C66.7637 22.0752 67.2096 20.632 67.7376 18.872C68.2773 17.112 68.8053 15.7216 69.3216 14.7008C68.2656 14.3723 67.4384 14.1083 66.84 13.9088C66.3237 15.2933 65.8955 17.0827 65.5552 19.2768C65.2853 21.0485 65.1504 22.4272 65.1504 23.4128ZM73.9225 26.0176C72.9956 26.0176 72.5321 25.3195 72.5321 23.9232C72.5321 23.1136 72.7433 22.2277 73.1657 21.2656C73.7524 19.9632 74.4974 19.1125 75.4009 18.7136C75.7177 18.5845 76.0345 18.52 76.3513 18.52C76.6798 18.52 76.938 18.6139 77.1257 18.8016C77.3134 18.9893 77.4073 19.2005 77.4073 19.4352C77.4073 19.5408 77.3486 19.5936 77.2313 19.5936C77.1257 19.5819 77.0729 19.5232 77.0729 19.4176C77.0729 19.312 77.0142 19.2181 76.8969 19.136C76.7913 19.0421 76.6329 18.9952 76.4217 18.9952C75.6825 18.9952 75.0137 19.6581 74.4153 20.984C73.8521 22.216 73.5705 23.3835 73.5705 24.4864C73.5705 25.1669 73.7172 25.5072 74.0105 25.5072C74.3156 25.5072 74.6793 25.2549 75.1017 24.7504C75.5358 24.2341 75.9348 23.6357 76.2985 22.9552C77.0846 21.5237 77.5481 20.6027 77.6889 20.192C77.8297 19.7813 77.9822 19.576 78.1465 19.576C78.4398 19.576 78.5865 19.8224 78.5865 20.3152C78.5865 20.4677 78.5689 20.6437 78.5337 20.8432C78.1465 22.7205 77.9353 23.8059 77.9001 24.0992C77.8766 24.3925 77.8649 24.6037 77.8649 24.7328C77.8649 25.296 77.9998 25.5776 78.2697 25.5776C78.5748 25.5776 79.003 25.1728 79.5545 24.3632C80.106 23.5536 80.5812 22.744 80.9801 21.9344L81.5785 20.72H82.0537C81.9833 20.8608 81.8894 21.0544 81.7721 21.3008C81.6665 21.5355 81.4494 21.9637 81.1209 22.5856C80.7924 23.1957 80.4756 23.7355 80.1705 24.2048C79.8772 24.6741 79.5428 25.1024 79.1673 25.4896C78.8036 25.8651 78.4868 26.0528 78.2169 26.0528C77.3486 26.0528 76.9145 25.4192 76.9145 24.152C76.9145 23.7296 76.9614 23.2368 77.0553 22.6736H76.9321C75.7353 24.9029 74.7321 26.0176 73.9225 26.0176ZM86.2676 19.576C86.5609 19.576 86.7076 19.8224 86.7076 20.3152C86.7076 20.6672 86.514 21.688 86.1268 23.3776C85.7396 25.0555 85.3934 26.4459 85.0884 27.5488C84.7833 28.6517 84.4958 29.4672 84.226 29.9952C83.9561 30.5349 83.6276 31.0747 83.2404 31.6144C82.8649 32.1541 82.4484 32.5237 81.9908 32.7232C81.5332 32.9227 81.0052 33.0224 80.4068 33.0224C79.2921 33.0224 78.7348 32.4533 78.7348 31.3152C78.7348 30.6464 78.987 29.9248 79.4916 29.1504C80.219 28.0123 81.1929 27.2613 82.4132 26.8976C82.8473 26.7685 83.299 26.704 83.7684 26.704C83.8505 26.704 83.8916 26.7861 83.8916 26.9504C83.8916 27.1147 83.8505 27.1968 83.7684 27.1968C82.3838 27.1968 81.2222 27.7424 80.2836 28.8336C79.5913 29.6549 79.2452 30.4469 79.2452 31.2096C79.2452 31.9723 79.5385 32.4123 80.1252 32.5296L80.4068 32.5472C81.3689 32.5472 82.1316 32.1483 82.6948 31.3504C83.2697 30.5408 83.7214 29.52 84.05 28.288C84.3785 27.0443 84.8009 25.0965 85.3172 22.4448H85.1764C83.9092 24.8267 82.8649 26.0176 82.0436 26.0176C81.1166 26.0176 80.6532 25.3195 80.6532 23.9232C80.6532 23.1136 80.8644 22.2277 81.2868 21.2656C81.8734 19.9632 82.6185 19.1125 83.522 18.7136C83.8388 18.5845 84.1556 18.52 84.4724 18.52C84.8009 18.52 85.059 18.6139 85.2468 18.8016C85.4345 18.9893 85.5284 19.2005 85.5284 19.4352C85.5284 19.5408 85.4697 19.5936 85.3524 19.5936C85.2468 19.5819 85.194 19.5232 85.194 19.4176C85.194 19.312 85.1353 19.2181 85.018 19.136C84.9124 19.0421 84.754 18.9952 84.5428 18.9952C83.8036 18.9952 83.1348 19.6581 82.5364 20.984C81.9732 22.216 81.6916 23.3835 81.6916 24.4864C81.6916 25.1669 81.8382 25.5072 82.1316 25.5072C82.5188 25.5072 83.0233 25.0496 83.6452 24.1344C84.5838 22.7499 85.3172 21.3947 85.8452 20.0688C85.986 19.7403 86.1268 19.576 86.2676 19.576ZM90.266 15.4576C90.5359 15.4576 90.6708 15.6395 90.6708 16.0032C90.6708 16.3669 90.4948 16.6603 90.1428 16.8832C89.9668 17.0005 89.8143 17.0592 89.6852 17.0592C89.4975 17.0592 89.386 17.0005 89.3508 16.8832L89.3332 16.8304C89.4388 16.8304 89.5151 16.7189 89.562 16.496C89.6089 16.2613 89.6793 16.0325 89.7732 15.8096C89.8788 15.5749 90.0431 15.4576 90.266 15.4576ZM89.1396 25.5776C89.4447 25.5776 89.8729 25.1728 90.4244 24.3632C90.9759 23.5536 91.4511 22.744 91.85 21.9344L92.4484 20.72H92.9236C92.8532 20.8608 92.7593 21.0544 92.642 21.3008C92.5364 21.5355 92.3193 21.9637 91.9908 22.5856C91.6623 23.1957 91.3455 23.7355 91.0404 24.2048C90.7471 24.6741 90.4127 25.1024 90.0372 25.4896C89.6735 25.8651 89.3567 26.0528 89.0868 26.0528C88.2185 26.0528 87.7844 25.4896 87.7844 24.3632C87.7844 23.5184 88.0249 22.1456 88.506 20.2448C88.5529 20.0453 88.5881 19.8928 88.6116 19.7872C88.6468 19.6816 88.682 19.5467 88.7172 19.3824C88.7524 19.2064 88.7876 19.048 88.8228 18.9072C88.8815 18.6608 88.9871 18.5376 89.1396 18.5376C89.3508 18.5376 89.5033 18.6901 89.5972 18.9952C89.6441 19.136 89.6676 19.3061 89.6676 19.5056C89.6676 19.7051 89.6441 19.9163 89.5972 20.1392C89.5503 20.3504 89.474 20.6672 89.3684 21.0896C89.2628 21.512 89.1807 21.8581 89.122 22.128C89.0633 22.3979 88.9988 22.7264 88.9284 23.1136C88.7993 23.7589 88.7348 24.3339 88.7348 24.8384C88.7348 25.3312 88.8697 25.5776 89.1396 25.5776ZM92.8443 23.5008C92.8443 24.8736 93.3195 25.56 94.2699 25.56C94.6453 25.56 95.0384 25.3957 95.4491 25.0672C95.8715 24.7269 96.2528 24.3221 96.5931 23.8528C97.344 22.7733 97.872 21.8933 98.1771 21.2128L98.4059 20.72H98.8811C98.6816 21.1893 98.3883 21.7701 98.0011 22.4624C97.6139 23.1429 97.2443 23.7179 96.8923 24.1872C96.5403 24.6565 96.1237 25.0848 95.6427 25.472C95.1616 25.8475 94.704 26.0352 94.2699 26.0352C93.0496 26.0352 92.2752 25.4779 91.9467 24.3632C91.8411 24.0112 91.7883 23.5712 91.7883 23.0432C91.7883 22.5035 91.9525 21.8464 92.2811 21.072C92.7621 19.9221 93.4192 19.1477 94.2523 18.7488C94.5808 18.5963 94.9035 18.52 95.2203 18.52C95.5488 18.52 95.8069 18.608 95.9947 18.784C96.2176 18.9952 96.3291 19.2416 96.3291 19.5232C96.3291 19.7931 96.2997 20.0453 96.2411 20.28C96.1824 20.5147 96.0592 20.7259 95.8715 20.9136C95.6955 21.0896 95.496 21.1776 95.2731 21.1776C95.1792 21.1776 95.1088 21.1131 95.0619 20.984C95.1557 20.984 95.2789 20.8197 95.4315 20.4912C95.5957 20.1509 95.6779 19.8165 95.6779 19.488C95.6779 19.1595 95.5371 18.9952 95.2555 18.9952C94.6453 18.9952 94.088 19.5056 93.5835 20.5264C93.0907 21.5472 92.8443 22.5387 92.8443 23.5008ZM107.217 11.656C107.745 11.656 108.009 12.008 108.009 12.712C108.009 12.888 107.992 13.0933 107.956 13.328C107.78 14.4427 107.317 15.5925 106.566 16.7776C106.026 17.6341 105.516 18.1739 105.035 18.3968C104.8 19.664 104.595 20.8139 104.419 21.8464H104.542C105.528 19.6523 106.525 18.5552 107.534 18.5552C107.898 18.5552 108.179 18.6667 108.379 18.8896C108.59 19.1125 108.696 19.4176 108.696 19.8048C108.696 20.192 108.543 21.0427 108.238 22.3568C107.933 23.6592 107.78 24.5685 107.78 25.0848C107.78 25.8475 107.921 26.2288 108.203 26.2288C108.203 26.3109 108.15 26.3931 108.044 26.4752C107.939 26.5573 107.816 26.5984 107.675 26.5984C106.994 26.5984 106.654 26.0645 106.654 24.9968C106.654 24.3397 106.824 23.3659 107.164 22.0752C107.516 20.7728 107.692 19.9339 107.692 19.5584C107.692 19.1829 107.546 18.9952 107.252 18.9952C106.912 18.9952 106.537 19.2827 106.126 19.8576C105.715 20.4325 105.334 21.1659 104.982 22.0576C104.395 23.4891 103.955 24.6859 103.662 25.648C103.592 25.8827 103.492 26 103.363 26C103.152 26 102.993 25.8709 102.888 25.6128C102.829 25.472 102.8 25.3253 102.8 25.1728C102.8 25.0085 102.847 24.7152 102.94 24.2928C103.034 23.8587 103.193 23.1019 103.416 22.0224C103.627 20.9429 103.809 20.0512 103.961 19.3472C104.114 18.6315 104.29 17.8336 104.489 16.9536C104.689 16.0619 104.876 15.3403 105.052 14.7888C105.24 14.2256 105.451 13.6859 105.686 13.1696C106.132 12.1605 106.642 11.656 107.217 11.656ZM107.604 12.7472C107.604 12.3717 107.499 12.1429 107.288 12.0608C106.595 12.0608 105.88 13.9968 105.14 17.8688C105.61 17.5403 106.097 16.8832 106.601 15.8976C107.27 14.5717 107.604 13.5216 107.604 12.7472ZM111.391 26.0176C110.464 26.0176 110.001 25.3195 110.001 23.9232C110.001 23.1136 110.212 22.2277 110.634 21.2656C111.221 19.9632 111.966 19.1125 112.87 18.7136C113.186 18.5845 113.503 18.52 113.82 18.52C114.149 18.52 114.407 18.6139 114.594 18.8016C114.782 18.9893 114.876 19.2005 114.876 19.4352C114.876 19.5408 114.817 19.5936 114.7 19.5936C114.594 19.5819 114.542 19.5232 114.542 19.4176C114.542 19.312 114.483 19.2181 114.366 19.136C114.26 19.0421 114.102 18.9952 113.89 18.9952C113.151 18.9952 112.482 19.6581 111.884 20.984C111.321 22.216 111.039 23.3835 111.039 24.4864C111.039 25.1669 111.186 25.5072 111.479 25.5072C111.784 25.5072 112.148 25.2549 112.57 24.7504C113.005 24.2341 113.404 23.6357 113.767 22.9552C114.553 21.5237 115.017 20.6027 115.158 20.192C115.298 19.7813 115.451 19.576 115.615 19.576C115.909 19.576 116.055 19.8224 116.055 20.3152C116.055 20.4677 116.038 20.6437 116.002 20.8432C115.615 22.7205 115.404 23.8059 115.369 24.0992C115.345 24.3925 115.334 24.6037 115.334 24.7328C115.334 25.296 115.469 25.5776 115.738 25.5776C116.044 25.5776 116.472 25.1728 117.023 24.3632C117.575 23.5536 118.05 22.744 118.449 21.9344L119.047 20.72H119.522C119.452 20.8608 119.358 21.0544 119.241 21.3008C119.135 21.5355 118.918 21.9637 118.59 22.5856C118.261 23.1957 117.944 23.7355 117.639 24.2048C117.346 24.6741 117.012 25.1024 116.636 25.4896C116.272 25.8651 115.956 26.0528 115.686 26.0528C114.817 26.0528 114.383 25.4192 114.383 24.152C114.383 23.7296 114.43 23.2368 114.524 22.6736H114.401C113.204 24.9029 112.201 26.0176 111.391 26.0176ZM120.903 15.4576C121.173 15.4576 121.308 15.6395 121.308 16.0032C121.308 16.3669 121.132 16.6603 120.78 16.8832C120.604 17.0005 120.451 17.0592 120.322 17.0592C120.134 17.0592 120.023 17.0005 119.988 16.8832L119.97 16.8304C120.076 16.8304 120.152 16.7189 120.199 16.496C120.246 16.2613 120.316 16.0325 120.41 15.8096C120.516 15.5749 120.68 15.4576 120.903 15.4576ZM119.776 25.5776C120.081 25.5776 120.51 25.1728 121.061 24.3632C121.613 23.5536 122.088 22.744 122.487 21.9344L123.085 20.72H123.56C123.49 20.8608 123.396 21.0544 123.279 21.3008C123.173 21.5355 122.956 21.9637 122.628 22.5856C122.299 23.1957 121.982 23.7355 121.677 24.2048C121.384 24.6741 121.049 25.1024 120.674 25.4896C120.31 25.8651 119.993 26.0528 119.724 26.0528C118.855 26.0528 118.421 25.4896 118.421 24.3632C118.421 23.5184 118.662 22.1456 119.143 20.2448C119.19 20.0453 119.225 19.8928 119.248 19.7872C119.284 19.6816 119.319 19.5467 119.354 19.3824C119.389 19.2064 119.424 19.048 119.46 18.9072C119.518 18.6608 119.624 18.5376 119.776 18.5376C119.988 18.5376 120.14 18.6901 120.234 18.9952C120.281 19.136 120.304 19.3061 120.304 19.5056C120.304 19.7051 120.281 19.9163 120.234 20.1392C120.187 20.3504 120.111 20.6672 120.005 21.0896C119.9 21.512 119.817 21.8581 119.759 22.128C119.7 22.3979 119.636 22.7264 119.565 23.1136C119.436 23.7589 119.372 24.3339 119.372 24.8384C119.372 25.3312 119.506 25.5776 119.776 25.5776ZM122.812 26C122.484 26 122.319 25.7477 122.319 25.2432C122.319 24.9733 122.648 23.008 123.305 19.3472C123.352 19.1008 123.458 18.9776 123.622 18.9776C123.833 18.9776 123.991 19.1301 124.097 19.4352C124.156 19.5995 124.185 19.7813 124.185 19.9808C124.185 20.1685 124.162 20.3739 124.115 20.5968L123.833 22.04H123.921C124.93 19.6933 125.857 18.52 126.702 18.52C127.171 18.52 127.482 18.7488 127.635 19.2064C127.693 19.3824 127.723 19.5877 127.723 19.8224C127.723 20.0453 127.658 20.2917 127.529 20.5616C127.306 21.0192 126.972 21.248 126.526 21.248C126.432 21.248 126.356 21.2245 126.297 21.1776C126.25 21.1307 126.221 21.0661 126.209 20.984C126.303 20.984 126.426 20.8139 126.579 20.4736C126.731 20.1216 126.819 19.7989 126.843 19.5056C126.866 19.2123 126.766 19.0421 126.543 18.9952C126.133 18.9952 125.646 19.5291 125.083 20.5968C124.519 21.6645 124.068 22.6853 123.727 23.6592C123.387 24.6331 123.188 25.2667 123.129 25.56C123.07 25.8533 122.965 26 122.812 26Z" fill="#7F49C5"/>
<path d="M46 6V33.4085" stroke="#7F49C5" stroke-linecap="round"/>
<defs>
<filter id="filter0_d_603_32" x="19.18" y="15" width="21.32" height="23.52" filterUnits="userSpaceOnUse" color-interpolation-filters="sRGB">
<feFlood flood-opacity="0" result="BackgroundImageFix"/>
<feColorMatrix in="SourceAlpha" type="matrix" values="0 0 0 0 0 0 0 0 0 0 0 0 0 0 0 0 0 0 127 0" result="hardAlpha"/>
<feOffset dy="2"/>
<feGaussianBlur stdDeviation="0.5"/>
<feComposite in2="hardAlpha" operator="out"/>
<feColorMatrix type="matrix" values="0 0 0 0 0.498039 0 0 0 0 0.286275 0 0 0 0 0.772549 0 0 0 0.21 0"/>
<feBlend mode="normal" in2="BackgroundImageFix" result="effect1_dropShadow_603_32"/>
<feBlend mode="normal" in="SourceGraphic" in2="effect1_dropShadow_603_32" result="shape"/>
</filter>
<filter id="filter1_d_603_32" x="0.900024" y="4.64" width="30.28" height="22.9" filterUnits="userSpaceOnUse" color-interpolation-filters="sRGB">
<feFlood flood-opacity="0" result="BackgroundImageFix"/>
<feColorMatrix in="SourceAlpha" type="matrix" values="0 0 0 0 0 0 0 0 0 0 0 0 0 0 0 0 0 0 127 0" result="hardAlpha"/>
<feOffset dy="3"/>
<feGaussianBlur stdDeviation="0.5"/>
<feComposite in2="hardAlpha" operator="out"/>
<feColorMatrix type="matrix" values="0 0 0 0 0.498039 0 0 0 0 0.286275 0 0 0 0 0.772549 0 0 0 0.21 0"/>
<feBlend mode="normal" in2="BackgroundImageFix" result="effect1_dropShadow_603_32"/>
<feBlend mode="normal" in="SourceGraphic" in2="effect1_dropShadow_603_32" result="shape"/>
</filter>
</defs>
</svg>
