<svg width="114" height="65" fill="none" xmlns="http://www.w3.org/2000/svg"><path d="M106.18 16.719c10.5 16 2.966 36.522-17.714 35.507-104.001-5.108-76.423 29.246-81.064-7.788C2.761 7.404 45.95-1.865 49.15 8.391c3.2 10.256 46.53-7.672 57.03 8.328z" fill="#7F49C5"/><path d="M12.68 36.993l18.094-.786c2.731-.118 5.436.57 7.778 1.98l1.134.684a8.849 8.849 0 004.85 1.264v0a8.976 8.976 0 004.444-1.344l1.938-1.203a15.77 15.77 0 018.313-2.37H95.68" stroke="#fff"/><path d="M54.458 39.999a.335.335 0 01.009.08.086.086 0 01-.027.064.113.113 0 01-.045.027.098.098 0 00-.036.018 1.12 1.12 0 01-.324.063.587.587 0 01-.207-.045.539.539 0 00-.216-.117 3.138 3.138 0 00-.522-.063 4.526 4.526 0 01-.46.027c-.041.222-.11.42-.206.594a1.409 1.409 0 01-.1.306c-.041.12-.06.189-.053.207-.018.024-.075.177-.171.459-.096.276-.186.546-.27.81-.06.186-.105.32-.135.405-.03.06-.07.156-.117.288l-.09.27-.225.62c-.048.09-.108.235-.18.433-.066.192-.12.366-.162.522l-.09.315c-.03.108-.057.189-.081.243-.018.054-.033.084-.045.09-.012.006-.042.006-.09 0-.048 0-.102-.04-.162-.117a.36.36 0 01-.081-.216c0-.132.045-.354.135-.666.096-.312.186-.561.27-.747.024-.108.045-.195.063-.261.024-.066.039-.114.045-.144a.915.915 0 00.08-.19c.043-.107.076-.206.1-.296.018-.108.204-.711.558-1.81l.063-.188c.054-.09.105-.204.153-.342.048-.03.072-.093.072-.19 0-.017.009-.041.027-.071.024-.03.036-.051.036-.063a.206.206 0 00.036-.081.302.302 0 01.063-.108v-.01l-.144.01-.441.045-.198.018c-.348.03-.55.05-.603.063-.18.012-.31.003-.387-.027-.072-.03-.096-.09-.072-.18a.262.262 0 01.108-.162.76.76 0 01.27-.081c.054-.012.159-.03.315-.054l.243-.045.306-.036c.348-.054.717-.09 1.107-.108.162-.006.297-.012.405-.018.114-.012.189-.021.225-.027.084.006.219.02.405.045.192.024.33.05.414.08.132.03.228.073.288.127a.46.46 0 01.144.234zm-.028 5.103a1.75 1.75 0 01-.414.08.417.417 0 01-.288-.125.314.314 0 01-.054-.081c-.012-.042-.027-.066-.045-.072v-.036c0-.066.042-.114.126-.144a.43.43 0 00.225.054c.144 0 .297-.042.459-.126.168-.09.297-.201.387-.333.246-.294.375-.546.387-.756a.279.279 0 00-.018-.117.681.681 0 00-.1-.144c-.221.072-.39.165-.503.279-.27.228-.456.399-.558.513a3.931 3.931 0 00-.37.53c-.095.12-.18.18-.251.18l.009.055c0 .09-.045.144-.135.162a.9.9 0 01-.28-.1c-.047-.041-.071-.11-.071-.206 0-.048.003-.087.009-.117a.832.832 0 00.027-.1l.018-.098c.012-.042.027-.105.045-.19.024-.09.045-.158.063-.206.108-.282.168-.447.18-.495.12-.33.216-.585.288-.765.078-.18.147-.315.207-.405l.198-.513a.489.489 0 01.234.072c.054.03.117.102.189.216-.006.048-.132.369-.378.963-.168.39-.252.6-.252.63 0 .006.036-.036.108-.126a1.96 1.96 0 01.297-.288c.132-.132.324-.258.576-.378a.815.815 0 01.207-.054c.06-.012.099-.021.117-.027a.53.53 0 01.342.108.645.645 0 01.27.495c.03.132.045.246.045.342a.853.853 0 01-.027.207 2.514 2.514 0 01-.198.369 1.05 1.05 0 01-.288.297 1.75 1.75 0 01-.36.26c-.156.09-.297.154-.423.19zm1.872.144a.466.466 0 01-.414-.36c0-.09.015-.19.045-.297a6.804 6.804 0 01.234-.783c.054-.15.087-.246.099-.288.054-.12.108-.28.162-.477.036-.126.096-.31.18-.55a4.36 4.36 0 00.099-.494.239.239 0 01.18-.09c.09 0 .204.069.342.207.03.078.045.144.045.198a.48.48 0 01-.045.17 11.58 11.58 0 00-.297.802 4.287 4.287 0 01-.171.549 8.58 8.58 0 00-.198.62 2.73 2.73 0 00-.135.577v.036c0 .078-.042.138-.126.18zm6.61-3.222a.41.41 0 01.198-.054c.084 0 .156.027.216.08a.223.223 0 01.1.19.541.541 0 01-.019.09c.018-.078-.045.05-.189.387-.144.336-.222.516-.234.54v.027c.084 0 .138.027.162.08.03.049.042.115.036.199a.486.486 0 00-.153.063.24.24 0 01-.117.045c-.018 0-.039.009-.063.027a.113.113 0 00-.045.063 1.847 1.847 0 00-.063.279l-.162.648a.245.245 0 01-.063.108.19.19 0 01-.08.054 2.479 2.479 0 01-.145-.045 4.833 4.833 0 01-.135-.063l-.072-.054v-.054c0-.084.015-.171.045-.261.048-.144.096-.345.144-.603-.048-.018-.168-.01-.36.027-.192.03-.297.045-.315.045a.562.562 0 01-.216.027c-.174 0-.297-.015-.369-.045l-.054.027a1.46 1.46 0 01-.054.18 1.397 1.397 0 00-.099.414 2.832 2.832 0 01-.036.207c-.012.06-.024.15-.036.27-.006.168-.063.252-.17.252a.419.419 0 01-.217-.072.93.93 0 01-.17-.144l.143-.693a1.79 1.79 0 00.054-.225c.024-.096.048-.174.072-.234l.1-.28c.071-.21.137-.38.197-.512l.19-.531c.017-.042.056-.156.116-.342.066-.192.105-.303.117-.333a.14.14 0 01.144-.1.336.336 0 01.243.073c.072.048.111.108.117.18a.73.73 0 01-.027.17l-.468 1.144v.072c.024.018.066.027.126.027.048 0 .12-.01.216-.027.102-.018.165-.027.19-.027a5.84 5.84 0 01.567-.027c.083 0 .128.003.134.009l.1-.288c.095-.294.197-.531.305-.711l.036-.1.063-.18zm2.836 2.88a.79.79 0 01-.54.198.922.922 0 01-.765-.405.934.934 0 01-.17-.324 1.553 1.553 0 01-.055-.441c0-.06.006-.18.018-.36a1.81 1.81 0 01.216-.693c.132-.24.294-.453.486-.64.192-.191.381-.323.567-.395a.504.504 0 01.387-.081l.135.018a.898.898 0 01.297.08c.072.03.132.079.18.145.15.15.225.324.225.522-.024.144-.117.309-.279.495a1.884 1.884 0 01-.585.45 1.165 1.165 0 01-.369.054.783.783 0 01-.45-.117.432.432 0 00-.126-.027c-.054 0-.096.036-.126.108a2.398 2.398 0 00-.08.576c0 .306.101.474.305.504.138.03.237.045.297.045a.527.527 0 00.243-.072l.171-.1a.38.38 0 00.1-.071l.08-.081.054-.054c.024-.03.045-.048.063-.054a.145.145 0 01.063-.018c.024 0 .051.015.081.045.03.024.054.042.072.054.054 0 .066.039.036.117a.898.898 0 01-.198.26 1.831 1.831 0 01-.333.262zm-.009-1.908a.909.909 0 00.306-.225c.108-.108.162-.198.162-.27a.23.23 0 00-.08-.18.327.327 0 00-.226-.072.546.546 0 00-.162.018.79.79 0 00-.297.198 2.411 2.411 0 00-.297.315c-.084.108-.117.17-.099.189.03.054.147.08.351.08a.929.929 0 00.342-.053zm2.522 1.88c-.09.019-.156.028-.198.028a.2.2 0 01-.09-.018 1.028 1.028 0 01-.099-.09.789.789 0 01-.315-.28.549.549 0 01-.09-.332c.024-.276.102-.58.234-.91.138-.33.3-.62.486-.872s.366-.408.54-.468a.778.778 0 01.27-.063c.144 0 .246.06.306.18a.484.484 0 01.063.189c0 .072-.042.12-.126.144-.018 0-.039.009-.063.027-.024.018-.036.036-.036.054.006.006.033.009.081.009.102 0 .228-.015.378-.045s.246-.063.288-.1a.212.212 0 01.09-.026l.126.018c.102.03.153.066.153.108a.12.12 0 00.027.072.086.086 0 00.063.027c.036.006.03.03-.018.072a2.902 2.902 0 01-.252.207l-.135.08a.297.297 0 00-.099.09.2.2 0 00.01.1c.023.054.035.12.035.198 0 .198-.087.417-.26.657-.169.24-.382.45-.64.63-.252.18-.495.285-.729.315zm-.153-.395c.036 0 .126-.036.27-.108a.62.62 0 01.19-.144c.041 0 .098-.03.17-.09.072-.066.183-.195.333-.387.114-.132.198-.243.252-.333.06-.09.09-.177.09-.261a.273.273 0 00-.009-.081c-.006-.018-.027-.033-.063-.045a.63.63 0 00-.09-.045.338.338 0 01-.153-.036 5.736 5.736 0 01-.189-.144l-.144-.18-.153.153c-.144.144-.29.38-.44.71-.15.325-.235.577-.253.757-.006.084.006.144.036.18.036.03.087.048.153.054zm2.858.405a.288.288 0 01-.072-.18c0-.048-.015-.072-.045-.072-.036-.036.033-.24.207-.612.174-.378.324-.666.45-.864a.164.164 0 00.054-.072c.012-.036.012-.054 0-.054a1.72 1.72 0 00.054-.09.842.842 0 01.072-.108c.102-.198.144-.357.126-.477a.086.086 0 00-.081-.027 1.088 1.088 0 01-.144.054.4.4 0 00-.126.054c-.138.09-.225.135-.261.135-.036 0-.07-.018-.1-.054a.888.888 0 01-.107-.297c0-.042.024-.084.072-.126a.35.35 0 01.126-.081.857.857 0 00.108-.054c.126-.072.216-.114.27-.126a1.03 1.03 0 01.26-.045c.18 0 .307.084.379.252a.536.536 0 01.126.35c0 .115-.042.262-.126.442l-.09.135a.216.216 0 00-.027.072c0 .012.003.018.009.018.024 0 .05-.021.08-.063.03-.03.07-.066.118-.108.048-.048.08-.072.099-.072a.07.07 0 00.027-.01c.012-.011.018-.035.018-.071l.09-.081c.024 0 .096-.051.216-.153l.17-.135a.316.316 0 01.18-.072.273.273 0 01.082-.01c.114 0 .207.064.279.19a.9.9 0 01.108.468l-.19.486.325-.396c.054-.066.126-.138.216-.216.012-.036.027-.057.045-.063a.158.158 0 01.045-.018c.006 0 .012-.003.018-.01.012-.005.018-.014.018-.026a2.03 2.03 0 01.09-.063.344.344 0 00.08-.072.438.438 0 01.18-.036c.127 0 .232.08.316.243a.499.499 0 01.063.18c.012.048.018.132.018.252-.024.132-.045.27-.063.414 0 .024-.006.084-.018.18a.781.781 0 00-.045.306c0 .084.003.138.009.162.012.024.036.036.072.036.09-.018.207-.06.35-.126.15-.072.259-.141.325-.207.09-.09.17-.135.243-.135.066 0 .108.036.126.108.018.036-.03.132-.144.288-.108.156-.183.234-.225.234-.012 0-.036.018-.072.054a.395.395 0 01-.072.072c-.102.114-.186.17-.252.17a.273.273 0 00-.1.028.315.315 0 01-.098.018.52.52 0 01-.351-.063.33.33 0 01-.162-.216 1.402 1.402 0 01-.072-.504c0-.054.006-.141.018-.261l.045-.28a.862.862 0 01.036-.206v-.081c0-.102-.01-.153-.027-.153-.048 0-.207.156-.477.468-.27.306-.477.57-.621.792-.042.054-.09.135-.144.243a.632.632 0 01-.09.162.112.112 0 01-.081.036c-.036 0-.075-.018-.117-.054a.487.487 0 01-.108-.135.409.409 0 01-.036-.135c0-.042.018-.123.054-.243.036-.126.087-.291.153-.495.066-.198.12-.37.162-.513.048-.144.078-.24.09-.288 0-.042-.15.066-.45.324-.06.072-.13.147-.207.225-.138.144-.294.312-.468.504a7.688 7.688 0 00-.441.549c-.132.18-.231.306-.297.378-.06.072-.111.108-.153.108-.03 0-.07-.027-.117-.081zm5.088 2.34a.473.473 0 01-.198-.162c-.066-.078-.1-.144-.1-.198 0-.09.06-.387.18-.891.12-.498.238-.903.352-1.215.006-.024.045-.123.117-.297.072-.174.14-.384.207-.63.048-.174.174-.513.378-1.017l.26-.648.208-.567a.306.306 0 01.09-.126.396.396 0 01.126-.081.154.154 0 01.063-.01c.084 0 .156.049.216.145a.24.24 0 01.027.108c0 .06-.036.177-.108.35l-.063.18.324-.071c.084 0 .153.003.207.009.216 0 .35.006.405.018.132.006.225.03.279.072.06.042.117.108.17.198.109.102.169.192.18.27.013.072.019.129.019.17 0 .193-.057.39-.171.595a1.294 1.294 0 01-.405.45c-.06.024-.111.048-.153.072a2.26 2.26 0 01-.081.045c-.012.048-.15.126-.414.234a2.969 2.969 0 01-.64.189c-.06.012-.128.018-.206.018a.35.35 0 01-.153-.027 1.104 1.104 0 00-.144-.018c-.018 0-.027.012-.027.036-.15.444-.273.849-.37 1.215a42.63 42.63 0 01-.422 1.242c-.072.198-.123.312-.153.342zm1.125-3.321c.006.024.039.036.099.036.126 0 .318-.057.576-.171a2.73 2.73 0 00.62-.37c.127-.15.223-.272.289-.368.072-.102.108-.18.108-.234 0-.024-.012-.048-.036-.072-.06-.09-.168-.135-.324-.135-.198 0-.435.075-.711.225a.537.537 0 00-.261.17 1.22 1.22 0 00-.135.253c-.042.102-.075.18-.1.234-.095.228-.137.372-.125.432zm3.455 1.017c-.108.024-.225-.01-.351-.1-.126-.09-.201-.188-.225-.296a.536.536 0 01-.009-.117c0-.222.084-.507.252-.855.174-.354.384-.678.63-.972.246-.3.471-.49.675-.567.126-.066.207-.1.243-.1.036 0 .117.034.243.1a.632.632 0 01.189.08.85.85 0 01.162.18c.078.157.135.349.171.577.036.126.054.216.054.27 0 .048-.018.09-.054.126l-.036.036a.087.087 0 00-.018.045c0 .006.006.009.018.009a.27.27 0 01-.009.045.694.694 0 01-.036.08 1.997 1.997 0 00-.108.586c0 .054.006.11.018.17.06.157.162.235.306.235.12 0 .234-.054.342-.162.096-.066.165-.111.207-.135.048-.03.072-.024.072.018a.268.268 0 00.036.027.097.097 0 00.054.018c.042 0 .063.027.063.08a.343.343 0 01-.063.18 1.372 1.372 0 00-.099.109c-.024.03-.036.054-.036.072l-.135.126a.794.794 0 01-.405.099.672.672 0 01-.387-.1 1.031 1.031 0 01-.243-.26 1.035 1.035 0 01-.153-.306l-.045-.09-.261.17a3.39 3.39 0 01-.207.19c-.078.06-.129.102-.153.126-.048.06-.09.09-.126.09h-.09c0 .042-.06.09-.18.144a.802.802 0 01-.306.072zm-.09-.486c.066 0 .234-.093.504-.28.27-.191.441-.332.513-.422l.261-.27a1.22 1.22 0 00.225-.37.958.958 0 00.09-.377c0-.102-.015-.174-.045-.216-.024-.072-.06-.108-.108-.108a.99.99 0 00-.207.063c-.114.072-.276.237-.486.495a7.021 7.021 0 00-.549.8c-.162.27-.243.469-.243.595 0 .018.006.036.018.054.012.018.021.03.027.036zm2.566 3.474a.995.995 0 01-.729-.306 2.51 2.51 0 00-.108-.243 2.652 2.652 0 00-.17-.18.55.55 0 01.044-.18.613.613 0 01.1-.198c.257-.306.62-.54 1.088-.702l.072-.036a.299.299 0 01.117-.027c.018 0 .033-.012.045-.036a.295.295 0 01.036-.045c.012-.006.03 0 .054.018a.177.177 0 00.063-.045.114.114 0 01.1-.01c.005.007.101-.02.287-.08.192-.054.324-.093.396-.117.012-.156.018-.276.018-.36 0-.264-.05-.441-.153-.531a.83.83 0 01-.162-.252 2.685 2.685 0 00-.099-.243.327.327 0 01.19-.225 3.95 3.95 0 00.692-.477 3.72 3.72 0 00.693-.72.49.49 0 00.108-.27c0-.156-.11-.246-.333-.27-.222 0-.513.15-.873.45a.535.535 0 01-.09.018c-.096 0-.168-.081-.216-.243a.392.392 0 01.063-.153c.03-.048.075-.105.135-.171l.117-.153a1.87 1.87 0 00.153-.09c.066-.048.12-.084.162-.108a.357.357 0 01.162-.036c.024 0 .06-.006.108-.018a.352.352 0 01.117-.027c.282.012.504.12.666.324.144.186.216.369.216.549 0 .204-.102.48-.306.828-.126.192-.459.468-.999.828l-.189.135c.072.09.147.249.225.477.084.228.126.417.126.567a.529.529 0 01-.018.126.57.57 0 00.234-.018 1.94 1.94 0 01.216-.027l.1.099a.904.904 0 01.107.108.183.183 0 01.036.099v.027c0 .03-.012.057-.036.08a.115.115 0 01-.072.046.89.89 0 01-.153.009c-.078 0-.162.003-.252.009a.76.76 0 00-.243.054 1.72 1.72 0 00-.126.216l-.09.198a3.977 3.977 0 01-.27.53 1.923 1.923 0 01-.414.46 1.928 1.928 0 01-.234.17.392.392 0 01-.18.073 1.702 1.702 0 01-.53.099zm-.387-.46c0 .013.03.019.09.019.096 0 .21-.015.342-.045a1.27 1.27 0 00.342-.126c.18-.108.363-.3.55-.576.077-.12.131-.231.161-.333a.097.097 0 00-.072-.027.358.358 0 00-.153.045c-.06.03-.099.048-.117.054a.698.698 0 01-.09.036.729.729 0 01-.117.054c-.174.06-.354.138-.54.234a1.46 1.46 0 00-.405.315c-.06.078-.132.15-.216.216.072.09.147.135.225.135zm6.106-2.25c-.144-.137-.252-.341-.324-.611a.677.677 0 01-.018-.19v-.188a.575.575 0 01-.198.243 1.53 1.53 0 01-.414.306c-.21.138-.38.207-.513.207-.12 0-.234-.066-.342-.198a.897.897 0 01-.18-.198.502.502 0 01-.054-.243c0-.066.01-.138.027-.216.012-.222.042-.435.09-.64a5.31 5.31 0 01.297-.782c.192-.378.33-.63.414-.756a.32.32 0 01.117-.018c.06 0 .108.018.144.054a.21.21 0 01.072.144.162.162 0 01.027.099c0 .15-.09.396-.27.738-.234.564-.35.954-.35 1.17 0 .126.035.2.107.225a.19.19 0 00.1.027c.15 0 .33-.102.54-.306.21-.204.41-.531.602-.981.084-.204.135-.414.153-.63a.273.273 0 01-.009-.081c0-.108.054-.195.162-.261a.22.22 0 01.1-.081c.041-.024.068-.024.08 0l.144-.01c.018-.005.036.013.054.055.018.036.036.06.054.072.042.036.063.102.063.198 0 .198-.087.5-.26.909-.115.24-.193.426-.235.558a1.64 1.64 0 00-.063.369c0 .228.087.417.261.567.06.042.096.087.108.135a.66.66 0 01.01.198.218.218 0 01-.109.135.364.364 0 01-.18.045.351.351 0 01-.207-.063zm5.635-.161a.758.758 0 01-.126.018.476.476 0 01-.26-.081 2.168 2.168 0 00-.055-.1.988.988 0 01-.054-.125.21.21 0 01.01-.108.527.527 0 00.026-.135l.027-.144c.012-.174.033-.294.063-.36a.145.145 0 00.018-.063c.006-.054.024-.132.054-.234.03-.108.048-.18.054-.216.012-.066.027-.177.045-.333a2.54 2.54 0 00.036-.324c0-.018.01-.042.027-.072a.082.082 0 000-.09 9.75 9.75 0 00-.576.62 4.802 4.802 0 00-.477.63.85.85 0 00-.09.118 1.028 1.028 0 01-.09.099.374.374 0 00-.08.117 2.77 2.77 0 00-.217.252c-.12.144-.219.249-.297.315a.292.292 0 01-.144 0 1.777 1.777 0 01-.135-.045.988.988 0 00-.126-.054l-.09-.19.072-.431c.036-.21.066-.426.09-.648a2.83 2.83 0 00.036-.486l-.009-.063a.12.12 0 01.027-.072l.01-.063c-.019-.018-.028-.036-.028-.054 0-.012.003-.03.01-.054.011-.03.011-.054 0-.072l-.055-.036a4.345 4.345 0 01-.288.405c-.114.138-.192.23-.234.279l-.35.44c-.03.049-.1.157-.208.325-.138.252-.264.429-.378.53a1.784 1.784 0 00-.126.145.842.842 0 01-.135.126c-.024.084-.087.126-.189.126a.497.497 0 01-.279-.09c-.09-.066-.135-.135-.135-.207 0-.048.018-.09.054-.126l.027-.063a.95.95 0 00.315-.234c.108-.114.24-.27.396-.468.138-.174.228-.285.27-.333.072-.078.144-.18.216-.306l.072-.108a.82.82 0 01.09-.126c.036-.042.141-.186.315-.432l.19-.261a3.29 3.29 0 01.332-.396c.108.06.201.09.28.09.06.078.12.144.18.198.143.126.215.348.215.666 0 .204-.033.483-.099.837l-.045.279.01.027c.12-.108.263-.28.431-.513l.243-.306c.288-.336.48-.552.576-.648.096-.102.19-.19.28-.261l.395-.36h.27c.036.03.07.054.1.072.035.012.077.024.125.036.006.024.015.069.027.135a.322.322 0 01.018.135.502.502 0 00-.027.126c0 .048-.012.09-.036.126-.06.096-.12.279-.18.549a5.386 5.386 0 00-.099.63.762.762 0 01-.072.225.485.485 0 00-.054.126.48.48 0 00-.009.108.473.473 0 01-.027.18l-.018.018v.144a.44.44 0 01-.036.207.316.316 0 01.01.09v.072c0 .054.005.093.017.117l-.126.153zm1.999-.081a.834.834 0 01-.162.018 1.21 1.21 0 01-.216-.018c-.066-.018-.1-.04-.1-.063 0-.018-.002-.03-.008-.036-.006-.006-.018-.01-.036-.01a.963.963 0 00-.054-.044.465.465 0 00-.108-.063.49.49 0 01-.081-.27c0-.102.027-.261.08-.477.019-.192.109-.432.27-.72.163-.288.352-.561.568-.82.222-.257.42-.437.594-.54a.463.463 0 01.342-.134c.108 0 .21.027.306.08a.957.957 0 01.26.244c.097.114.172.23.226.35.024.09.036.178.036.262 0 .09-.012.23-.036.423-.03.108-.057.24-.081.396a3.601 3.601 0 00-.027.405.378.378 0 00.018.207c.024.048.057.072.099.072.03 0 .063-.01.099-.027a.436.436 0 01.198-.045.24.24 0 01.162.054c.042.036.063.09.063.162 0 .108-.075.216-.225.324a.698.698 0 01-.414.162c-.09 0-.174-.07-.252-.207a4.037 4.037 0 01-.216-.55l-.054-.206-.387.369-.207.207a2.52 2.52 0 00-.162.17c-.066.115-.231.223-.495.325zm.027-.531c.144-.084.32-.231.53-.441.21-.21.385-.411.523-.603.186-.246.303-.49.35-.73a.766.766 0 00-.116-.215c-.054-.072-.102-.111-.144-.117-.12 0-.246.069-.378.207-.132.138-.288.33-.468.576l-.297.44a2.507 2.507 0 00-.19.388c-.09.204-.134.327-.134.369 0 .132.039.198.117.198.06 0 .129-.024.207-.072zm-64.114-23.44l-.976-.304c-.512.79-1.056 2.208-1.632 4.256-.235.81-.496 1.67-.784 2.576a19.135 19.135 0 01-.976 2.528 11.924 11.924 0 01-1.264 2.128 5.143 5.143 0 01-1.76 1.52c-.704.373-1.494.56-2.368.56-1.568 0-2.71-.56-3.424-1.68a3.756 3.756 0 01-.592-2.032c0-.299.032-.603.096-.912.224-1.035.73-1.77 1.52-2.208a2.78 2.78 0 011.392-.352c1.098 0 1.84.426 2.224 1.28.16.352.24.714.24 1.088 0 .362-.075.73-.224 1.104-.363.896-.955 1.344-1.776 1.344a.593.593 0 01-.32-.08.574.574 0 01-.192-.272c.288 0 .56-.075.816-.224.426-.256.757-.72.992-1.392.074-.224.112-.406.112-.544 0-.15-.01-.315-.032-.496a2.09 2.09 0 00-.208-.656c-.118-.246-.32-.443-.608-.592-.288-.15-.63-.224-1.024-.224-1.014 0-1.76.448-2.24 1.344-.278.512-.416.997-.416 1.456 0 .458.048.87.144 1.232.277 1.013.858 1.712 1.744 2.096.416.181.944.272 1.584.272.64 0 1.285-.182 1.936-.544a5.225 5.225 0 001.696-1.44c.48-.619.912-1.307 1.296-2.064.384-.758.73-1.574 1.04-2.448.32-.886.608-1.723.864-2.512.682-2.027 1.274-3.44 1.776-4.24-1.61-.502-2.779-.752-3.504-.752-1.376 0-2.4.522-3.072 1.568-.384.597-.576 1.21-.576 1.84 0 .181.021.368.064.56.117.704.432 1.125.944 1.264.096.021.192.032.288.032-.064.224-.24.336-.528.336-.65 0-1.11-.347-1.376-1.04a3.035 3.035 0 01-.192-1.104c0-.406.106-.859.32-1.36.448-1.078 1.237-1.814 2.368-2.208.533-.182 1.141-.272 1.824-.272.693 0 1.91.277 3.648.832.522-.747 1.12-1.12 1.792-1.12.085 0 .15.026.192.08.042.053.07.128.08.224-.63 0-1.19.314-1.68.944.48.15.79.25.928.304.448-.779.87-1.168 1.264-1.168.181 0 .288.053.32.16l.016.048c-.299 0-.614.394-.944 1.184l2.288.736c.714-1.344 1.461-2.016 2.24-2.016.106 0 .192.026.256.08a.402.402 0 01.128.24c-.8 0-1.536.608-2.208 1.824.576.15.933.234 1.072.256.63-1.248 1.194-1.872 1.696-1.872.181 0 .288.053.32.16l.016.048c-.352 0-.779.592-1.28 1.776.074.01.176.016.304.016 1.056 0 1.797-.315 2.224-.944.181-.246.272-.454.272-.624 0-.48-.214-.72-.64-.72.096-.15.25-.224.464-.224.416 0 .688.208.816.624.032.128.048.25.048.368 0 .352-.15.698-.448 1.04-.523.576-1.328.864-2.416.864-.256 0-.507-.022-.752-.064-.47 1.205-.875 2.597-1.216 4.176-.33 1.578-.496 2.986-.496 4.224 0 1.237.25 1.856.752 1.856-.107.213-.262.32-.464.32-.832 0-1.248-.912-1.248-2.736 0-1.078.17-2.358.512-3.84a21.016 21.016 0 011.392-4.144 13.52 13.52 0 01-1.088-.272c-.47.917-.966 2.261-1.488 4.032-.512 1.76-.97 3.205-1.376 4.336-.395 1.13-.795 1.696-1.2 1.696-.81 0-1.216-.97-1.216-2.912 0-1.184.17-2.57.512-4.16.352-1.59.816-2.944 1.392-4.064zm-.832 8.88c0 .896.106 1.344.32 1.344.224 0 .496-.512.816-1.536.33-1.024.736-2.336 1.216-3.936.49-1.6.97-2.864 1.44-3.792a130.4 130.4 0 01-2.256-.72c-.47 1.258-.859 2.885-1.168 4.88-.246 1.61-.368 2.864-.368 3.76zm7.926.016c0 1.29.459 1.936 1.376 1.936.342 0 .699-.15 1.072-.448a5.74 5.74 0 001.04-1.104c.683-.982 1.163-1.782 1.44-2.4l.208-.448h.432c-.181.426-.448.954-.8 1.584a14.994 14.994 0 01-1.008 1.568c-.32.426-.698.816-1.136 1.168-.437.341-.853.512-1.248.512-1.578 0-2.368-.886-2.368-2.656 0-.822.24-1.643.72-2.464.662-1.142 1.478-1.712 2.448-1.712.683 0 1.024.373 1.024 1.12 0 .554-.213 1.13-.64 1.728-.597.81-1.296 1.221-2.096 1.232-.117 0-.192-.054-.224-.16l-.016-.064c.555 0 1.083-.363 1.584-1.088.512-.736.768-1.35.768-1.84 0-.33-.128-.496-.384-.496-.565 0-1.093.496-1.584 1.488-.405.842-.608 1.69-.608 2.544zm9.416-3.504c.266 0 .4.224.4.672 0 .32-.176 1.248-.528 2.784a93.513 93.513 0 01-.944 3.792c-.278 1.002-.539 1.744-.784 2.224-.246.49-.544.981-.896 1.472-.342.49-.72.826-1.136 1.008-.416.181-.896.272-1.44.272-1.014 0-1.52-.518-1.52-1.552 0-.608.23-1.264.688-1.968.661-1.035 1.546-1.718 2.656-2.048a4.302 4.302 0 011.232-.176c.074 0 .112.074.112.224 0 .15-.038.224-.112.224-1.259 0-2.315.496-3.168 1.488-.63.746-.944 1.466-.944 2.16 0 .693.266 1.093.8 1.2l.256.016c.874 0 1.568-.363 2.08-1.088.522-.736.933-1.664 1.232-2.784.298-1.13.682-2.902 1.152-5.312h-.128c-1.152 2.165-2.102 3.248-2.848 3.248-.843 0-1.264-.635-1.264-1.904 0-.736.192-1.542.576-2.416.533-1.184 1.21-1.958 2.032-2.32.288-.118.576-.176.864-.176.298 0 .533.085.704.256.17.17.256.362.256.576 0 .096-.054.144-.16.144-.096-.01-.144-.064-.144-.16s-.054-.182-.16-.256c-.096-.086-.24-.128-.432-.128-.672 0-1.28.602-1.824 1.808-.512 1.12-.768 2.181-.768 3.184 0 .618.133.928.4.928.352 0 .81-.416 1.376-1.248.853-1.259 1.52-2.49 2-3.696.128-.299.256-.448.384-.448zm3.635-3.744c.245 0 .368.165.368.496 0 .33-.16.597-.48.8-.16.106-.299.16-.416.16-.171 0-.272-.054-.304-.16l-.016-.048c.096 0 .165-.102.208-.304.042-.214.106-.422.192-.624.096-.214.245-.32.448-.32zm-1.024 9.2c.277 0 .666-.368 1.168-1.104a18.3 18.3 0 001.296-2.208l.544-1.104h.432c-.064.128-.15.304-.256.528-.096.213-.294.602-.592 1.168a20.929 20.929 0 01-.864 1.472 7.01 7.01 0 01-.912 1.168c-.331.341-.619.512-.864.512-.79 0-1.184-.512-1.184-1.536 0-.768.218-2.016.656-3.744l.096-.416a3.55 3.55 0 00.096-.368c.032-.16.064-.304.096-.432.053-.224.149-.336.288-.336.192 0 .33.138.416.416.042.128.064.282.064.464 0 .181-.022.373-.064.576-.043.192-.112.48-.208.864a31.06 31.06 0 00-.224.944c-.054.245-.112.544-.176.896a8.09 8.09 0 00-.176 1.568c0 .448.122.672.368.672zm3.367-1.888c0 1.248.433 1.872 1.297 1.872.34 0 .698-.15 1.072-.448.384-.31.73-.678 1.04-1.104.682-.982 1.162-1.782 1.44-2.4l.207-.448h.432a17.03 17.03 0 01-.8 1.584 14.994 14.994 0 01-1.008 1.568 6.52 6.52 0 01-1.136 1.168c-.437.341-.853.512-1.248.512-1.109 0-1.813-.507-2.111-1.52-.096-.32-.145-.72-.145-1.2 0-.49.15-1.088.448-1.792.438-1.046 1.035-1.75 1.793-2.112a2.08 2.08 0 01.88-.208c.298 0 .533.08.703.24a.898.898 0 01.304.672c0 .245-.026.474-.08.688a1.229 1.229 0 01-.335.576.75.75 0 01-.544.24c-.086 0-.15-.059-.193-.176.086 0 .198-.15.337-.448.149-.31.224-.614.224-.912 0-.299-.129-.448-.385-.448-.554 0-1.06.464-1.52 1.392-.447.928-.672 1.83-.672 2.704zm13.707-7.92l2.736.176c.512-1.163 1.168-1.744 1.968-1.744a.3.3 0 01.304.208l.016.064c-.65 0-1.163.474-1.536 1.424 1.077-.17 1.835-.63 2.272-1.376.17-.299.256-.539.256-.72 0-.427-.15-.64-.448-.64a.374.374 0 01.384-.272c.363 0 .544.25.544.752 0 .49-.197.97-.592 1.44-.576.693-1.43 1.098-2.56 1.216-.235.768-.427 1.728-.576 2.88-.15 1.152-.235 1.797-.256 1.936a98.245 98.245 0 012.096-1.424c.992-.662 1.637-1.094 1.936-1.296.48-1.739 1.099-3.179 1.856-4.32.768-1.142 1.573-1.712 2.416-1.712.288 0 .512.09.672.272.17.181.256.416.256.704 0 .778-.373 1.573-1.12 2.384-.747.81-1.787 1.685-3.12 2.624-.48 1.93-.72 3.797-.72 5.6 0 1.6.23 2.794.688 3.584.363.618.853.928 1.472.928-.064.213-.213.32-.448.32-.715 0-1.29-.288-1.728-.864-.661-.854-.992-2.23-.992-4.128 0-1.472.192-3.019.576-4.64-2.41 1.6-3.717 2.47-3.92 2.608-.32 2.144-.73 3.605-1.232 4.384-.48.725-1.088 1.088-1.824 1.088-.341 0-.613-.118-.816-.352-.203-.235-.304-.55-.304-.944 0-1.078 1.03-2.395 3.088-3.952.459-2.827.87-4.71 1.232-5.648l-2.384-.176c-1.29 0-2.213.49-2.768 1.472-.267.49-.4.981-.4 1.472 0 .256.032.506.096.752.203.757.603 1.136 1.2 1.136 0 .085-.043.165-.128.24a.41.41 0 01-.304.112c-.683 0-1.157-.352-1.424-1.056a2.964 2.964 0 01-.176-1.056c0-.395.112-.843.336-1.344.437-1.003 1.173-1.654 2.208-1.952a4.12 4.12 0 011.168-.16zm11.328-2.448c0-.406-.17-.608-.512-.608-.555 0-1.11.453-1.664 1.36-.544.896-1.019 2.058-1.424 3.488 1.141-.832 2.027-1.59 2.656-2.272.63-.694.944-1.35.944-1.968zM67.243 32.203c0 .586.224.88.672.88.459 0 .827-.358 1.104-1.072.277-.715.539-1.76.784-3.136-1.707 1.322-2.56 2.432-2.56 3.328zm11.69.032c-.843 0-1.265-.635-1.265-1.904 0-.736.192-1.542.576-2.416.534-1.184 1.211-1.958 2.032-2.32.288-.118.576-.176.864-.176.3 0 .534.085.704.256.171.17.256.362.256.576 0 .096-.053.144-.16.144-.096-.01-.144-.064-.144-.16s-.053-.182-.16-.256c-.096-.086-.24-.128-.432-.128-.672 0-1.28.602-1.824 1.808-.512 1.12-.768 2.181-.768 3.184 0 .618.134.928.4.928.278 0 .608-.23.992-.688a9.43 9.43 0 001.088-1.632c.715-1.302 1.136-2.139 1.264-2.512.128-.374.267-.56.416-.56.267 0 .4.224.4.672 0 .138-.016.298-.048.48-.352 1.706-.544 2.693-.576 2.96a8.216 8.216 0 00-.032.576c0 .512.123.768.368.768.278 0 .667-.368 1.168-1.104.502-.736.934-1.472 1.296-2.208l.544-1.104h.432c-.064.128-.149.304-.256.528a25.014 25.014 0 01-1.456 2.64 7 7 0 01-.912 1.168c-.33.341-.618.512-.864.512-.789 0-1.184-.576-1.184-1.728 0-.384.043-.832.128-1.344h-.112c-1.088 2.026-2 3.04-2.736 3.04zm8.646-9.6c.246 0 .368.165.368.496 0 .33-.16.597-.48.8-.16.106-.298.16-.416.16-.17 0-.272-.054-.304-.16l-.016-.048c.096 0 .166-.102.208-.304.043-.214.107-.422.192-.624.096-.214.246-.32.448-.32zm-1.024 9.2c.278 0 .667-.368 1.168-1.104.502-.736.934-1.472 1.296-2.208l.544-1.104h.432c-.064.128-.15.304-.256.528a25.014 25.014 0 01-1.456 2.64 7 7 0 01-.912 1.168c-.33.341-.618.512-.864.512-.79 0-1.184-.512-1.184-1.536 0-.768.219-2.016.656-3.744.043-.182.075-.32.096-.416a3.55 3.55 0 00.096-.368c.032-.16.064-.304.096-.432.054-.224.15-.336.288-.336.192 0 .33.138.416.416.043.128.064.282.064.464 0 .181-.021.373-.064.576-.042.192-.112.48-.208.864-.096.384-.17.698-.224.944-.053.245-.112.544-.176.896a8.097 8.097 0 00-.176 1.568c0 .448.123.672.368.672zm2.76.384c-.299 0-.448-.23-.448-.688 0-.246.299-2.032.896-5.36.043-.224.139-.336.288-.336.192 0 .336.138.432.416.053.15.08.314.08.496 0 .17-.021.357-.064.56l-.256 1.312h.08c.918-2.134 1.76-3.2 2.528-3.2.427 0 .71.208.848.624.053.16.08.346.08.56 0 .202-.058.426-.176.672-.203.416-.506.624-.912.624a.323.323 0 01-.208-.064.301.301 0 01-.08-.176c.085 0 .197-.155.336-.464a2.79 2.79 0 00.24-.88c.022-.267-.07-.422-.272-.464-.373 0-.816.485-1.328 1.456-.512.97-.922 1.898-1.232 2.784-.31.885-.49 1.461-.544 1.728-.053.266-.15.4-.288.4z" fill="#fff"/></svg>