<svg width="114" height="65" viewBox="0 0 114 65" fill="none" xmlns="http://www.w3.org/2000/svg">
<path d="M106.18 16.7188C116.68 32.7188 109.146 53.2412 88.4658 52.2256C-15.5355 47.118 12.0431 81.4719 7.40206 44.438C2.761 7.40417 45.9486 -1.86512 49.1497 8.39089C52.3508 18.6469 95.6797 0.71875 106.18 16.7188Z" fill="#7F49C5"/>
<path d="M12.6797 36.9929L30.7744 36.2071C33.5052 36.0885 36.2104 36.7773 38.5519 38.1875L39.6863 38.8706C41.1474 39.7506 42.8317 40.1896 44.5364 40.1347V40.1347C46.1099 40.0841 47.6423 39.6205 48.98 38.7906L50.9177 37.5883C53.414 36.0395 56.2935 35.2188 59.2313 35.2188H95.6798" stroke="white"/>
<path d="M54.4577 39.9987C54.4637 40.0227 54.4667 40.0497 54.4667 40.0797C54.4667 40.1037 54.4577 40.1247 54.4397 40.1427C54.4277 40.1547 54.4127 40.1637 54.3947 40.1697C54.3767 40.1757 54.3647 40.1817 54.3587 40.1877C54.2267 40.2297 54.1187 40.2507 54.0347 40.2507C53.9747 40.2507 53.9057 40.2357 53.8277 40.2057C53.7677 40.1517 53.6957 40.1127 53.6117 40.0887C53.5277 40.0647 53.3537 40.0437 53.0897 40.0257C52.9157 40.0437 52.7627 40.0527 52.6307 40.0527C52.5887 40.2747 52.5197 40.4727 52.4237 40.6467C52.3997 40.7607 52.3667 40.8627 52.3247 40.9527C52.2827 41.0727 52.2647 41.1417 52.2707 41.1597C52.2527 41.1837 52.1957 41.3367 52.0997 41.6187C52.0037 41.8947 51.9137 42.1647 51.8297 42.4287C51.7697 42.6147 51.7247 42.7497 51.6947 42.8337C51.6647 42.8937 51.6257 42.9897 51.5777 43.1217C51.5357 43.2477 51.5057 43.3377 51.4877 43.3917L51.2627 44.0127C51.2147 44.1027 51.1547 44.2467 51.0827 44.4447C51.0167 44.6367 50.9627 44.8107 50.9207 44.9667L50.8307 45.2818C50.8007 45.3898 50.7737 45.4708 50.7497 45.5248C50.7317 45.5788 50.7167 45.6088 50.7047 45.6148C50.6927 45.6208 50.6627 45.6208 50.6147 45.6148C50.5667 45.6148 50.5127 45.5758 50.4527 45.4978C50.3987 45.4258 50.3717 45.3538 50.3717 45.2818C50.3717 45.1497 50.4167 44.9277 50.5067 44.6157C50.6027 44.3037 50.6927 44.0547 50.7767 43.8687C50.8007 43.7607 50.8217 43.6737 50.8397 43.6077C50.8637 43.5417 50.8787 43.4937 50.8847 43.4637C50.9027 43.4397 50.9297 43.3767 50.9657 43.2747C51.0077 43.1667 51.0407 43.0677 51.0647 42.9777C51.0827 42.8697 51.2687 42.2667 51.6227 41.1687L51.6857 40.9797C51.7397 40.8897 51.7907 40.7757 51.8387 40.6377C51.8867 40.6077 51.9107 40.5447 51.9107 40.4487C51.9107 40.4307 51.9197 40.4067 51.9377 40.3767C51.9617 40.3467 51.9737 40.3257 51.9737 40.3137C51.9857 40.3017 51.9977 40.2747 52.0097 40.2327C52.0277 40.1847 52.0487 40.1487 52.0727 40.1247V40.1157L51.9287 40.1247L51.4877 40.1697L51.2897 40.1877C50.9417 40.2177 50.7407 40.2387 50.6867 40.2507C50.5067 40.2627 50.3777 40.2537 50.2997 40.2237C50.2277 40.1937 50.2037 40.1337 50.2277 40.0437C50.2457 39.9717 50.2817 39.9177 50.3357 39.8817C50.3957 39.8457 50.4857 39.8187 50.6057 39.8007C50.6597 39.7887 50.7647 39.7707 50.9207 39.7467L51.1637 39.7017L51.4697 39.6657C51.8177 39.6117 52.1867 39.5757 52.5767 39.5577C52.7387 39.5517 52.8737 39.5457 52.9817 39.5397C53.0957 39.5277 53.1707 39.5187 53.2067 39.5127C53.2907 39.5187 53.4257 39.5337 53.6117 39.5577C53.8037 39.5817 53.9417 39.6087 54.0257 39.6387C54.1577 39.6687 54.2537 39.7107 54.3137 39.7647C54.3797 39.8187 54.4277 39.8967 54.4577 39.9987ZM54.4298 45.1017C54.2378 45.1557 54.0998 45.1827 54.0158 45.1827C53.9138 45.1827 53.8178 45.1407 53.7278 45.0567C53.7098 45.0387 53.6918 45.0117 53.6738 44.9757C53.6618 44.9337 53.6468 44.9097 53.6288 44.9037V44.8677C53.6288 44.8017 53.6708 44.7537 53.7548 44.7237C53.8148 44.7597 53.8898 44.7777 53.9798 44.7777C54.1238 44.7777 54.2768 44.7357 54.4388 44.6517C54.6068 44.5617 54.7358 44.4507 54.8258 44.3187C55.0718 44.0247 55.2008 43.7727 55.2128 43.5627C55.2128 43.5087 55.2068 43.4697 55.1948 43.4457C55.1828 43.4157 55.1498 43.3677 55.0958 43.3017C54.8738 43.3737 54.7058 43.4667 54.5918 43.5807C54.3218 43.8087 54.1358 43.9797 54.0338 44.0938C53.9378 44.2017 53.8148 44.3787 53.6648 44.6248C53.5688 44.7447 53.4848 44.8047 53.4128 44.8047L53.4218 44.8587C53.4218 44.9487 53.3768 45.0027 53.2868 45.0207C53.1548 44.9907 53.0618 44.9577 53.0078 44.9218C52.9598 44.8797 52.9358 44.8107 52.9358 44.7147C52.9358 44.6667 52.9388 44.6277 52.9448 44.5977C52.9568 44.5617 52.9658 44.5287 52.9718 44.4987C52.9778 44.4627 52.9838 44.4297 52.9898 44.3997C53.0018 44.3577 53.0168 44.2947 53.0348 44.2107C53.0588 44.1207 53.0798 44.0517 53.0978 44.0037C53.2058 43.7217 53.2658 43.5567 53.2778 43.5087C53.3978 43.1787 53.4938 42.9237 53.5658 42.7437C53.6438 42.5637 53.7128 42.4287 53.7728 42.3387L53.9708 41.8257C54.0788 41.8377 54.1568 41.8617 54.2048 41.8977C54.2588 41.9277 54.3218 41.9997 54.3938 42.1137C54.3878 42.1617 54.2618 42.4827 54.0158 43.0767C53.8478 43.4667 53.7638 43.6767 53.7638 43.7067C53.7638 43.7127 53.7998 43.6707 53.8718 43.5807C53.9438 43.4907 54.0428 43.3947 54.1688 43.2927C54.3008 43.1607 54.4928 43.0347 54.7448 42.9147C54.8228 42.8847 54.8918 42.8667 54.9518 42.8607C55.0118 42.8487 55.0508 42.8397 55.0688 42.8337C55.2068 42.8337 55.3208 42.8697 55.4108 42.9417C55.5068 43.0077 55.5758 43.0887 55.6178 43.1847C55.6598 43.2807 55.6808 43.3647 55.6808 43.4367C55.7108 43.5687 55.7258 43.6827 55.7258 43.7787C55.7258 43.8447 55.7168 43.9137 55.6988 43.9857C55.6508 44.0997 55.5848 44.2227 55.5008 44.3547C55.4168 44.4807 55.3208 44.5797 55.2128 44.6517C55.1288 44.7357 55.0088 44.8227 54.8528 44.9127C54.6968 45.0027 54.5558 45.0657 54.4298 45.1017ZM56.3018 45.2458C56.0858 45.2157 55.9478 45.0957 55.8878 44.8857C55.8878 44.7957 55.9028 44.6967 55.9328 44.5887C55.9628 44.4807 55.9838 44.3997 55.9958 44.3457C56.0258 44.2257 56.0828 44.0457 56.1668 43.8057C56.2208 43.6557 56.2538 43.5597 56.2658 43.5177C56.3198 43.3977 56.3738 43.2387 56.4278 43.0407C56.4638 42.9147 56.5238 42.7317 56.6078 42.4917C56.6378 42.3897 56.6708 42.2247 56.7068 41.9967C56.7608 41.9367 56.8208 41.9067 56.8868 41.9067C56.9768 41.9067 57.0908 41.9757 57.2288 42.1137C57.2588 42.1917 57.2738 42.2577 57.2738 42.3117C57.2738 42.3537 57.2588 42.4107 57.2288 42.4827C57.1808 42.5847 57.0818 42.8517 56.9318 43.2837C56.9198 43.3617 56.8628 43.5447 56.7608 43.8327C56.6588 44.1267 56.5928 44.3337 56.5628 44.4537C56.5088 44.5917 56.4638 44.7837 56.4278 45.0297V45.0657C56.4278 45.1437 56.3858 45.2037 56.3018 45.2458ZM62.9123 42.0237C62.9783 41.9877 63.0443 41.9697 63.1103 41.9697C63.1943 41.9697 63.2663 41.9967 63.3263 42.0507C63.3923 42.0987 63.4253 42.1617 63.4253 42.2397C63.4253 42.2517 63.4193 42.2817 63.4073 42.3297C63.4253 42.2517 63.3623 42.3807 63.2183 42.7167C63.0743 43.0527 62.9963 43.2327 62.9843 43.2567V43.2837C63.0683 43.2837 63.1223 43.3107 63.1463 43.3647C63.1763 43.4127 63.1883 43.4787 63.1823 43.5627C63.1283 43.5747 63.0773 43.5957 63.0293 43.6257C62.9813 43.6557 62.9423 43.6707 62.9123 43.6707C62.8943 43.6707 62.8733 43.6797 62.8493 43.6977C62.8253 43.7157 62.8103 43.7367 62.8043 43.7607C62.7923 43.7847 62.7713 43.8777 62.7413 44.0397L62.5793 44.6877C62.5673 44.7297 62.5463 44.7657 62.5163 44.7957C62.4863 44.8257 62.4593 44.8437 62.4353 44.8497C62.4113 44.8437 62.3633 44.8287 62.2913 44.8047C62.2253 44.7747 62.1803 44.7537 62.1563 44.7417C62.1323 44.7237 62.1083 44.7057 62.0843 44.6877V44.6337C62.0843 44.5497 62.0993 44.4627 62.1293 44.3727C62.1773 44.2287 62.2253 44.0277 62.2733 43.7697C62.2253 43.7517 62.1053 43.7607 61.9133 43.7967C61.7213 43.8267 61.6163 43.8417 61.5983 43.8417C61.5623 43.8597 61.4903 43.8687 61.3823 43.8687C61.2083 43.8687 61.0853 43.8537 61.0133 43.8237L60.9593 43.8507C60.9473 43.9047 60.9293 43.9647 60.9053 44.0308C60.8393 44.2167 60.8063 44.3547 60.8063 44.4447C60.7943 44.5287 60.7823 44.5977 60.7703 44.6517C60.7583 44.7117 60.7463 44.8017 60.7343 44.9218C60.7283 45.0897 60.6713 45.1737 60.5633 45.1737C60.4973 45.1737 60.4253 45.1497 60.3473 45.1017C60.3053 45.0777 60.2483 45.0297 60.1763 44.9577L60.3203 44.2647C60.3383 44.2107 60.3563 44.1357 60.3743 44.0397C60.3983 43.9437 60.4223 43.8657 60.4463 43.8057L60.5453 43.5267C60.6173 43.3167 60.6833 43.1457 60.7433 43.0137C60.7433 43.0137 60.8063 42.8367 60.9323 42.4827C60.9503 42.4407 60.9893 42.3267 61.0493 42.1407C61.1153 41.9487 61.1543 41.8377 61.1663 41.8077C61.1903 41.7417 61.2383 41.7087 61.3103 41.7087C61.4063 41.7027 61.4873 41.7267 61.5533 41.7807C61.6253 41.8287 61.6643 41.8887 61.6703 41.9607C61.6703 41.9787 61.6673 42.0087 61.6613 42.0507C61.6553 42.0867 61.6493 42.1137 61.6433 42.1317L61.1753 43.2747V43.3467C61.1993 43.3647 61.2413 43.3737 61.3013 43.3737C61.3493 43.3737 61.4213 43.3647 61.5173 43.3467C61.6193 43.3287 61.6823 43.3197 61.7063 43.3197C61.7603 43.3137 61.8413 43.3077 61.9493 43.3017C62.0573 43.2957 62.1653 43.2927 62.2733 43.2927C62.3573 43.2927 62.4023 43.2957 62.4083 43.3017L62.5073 43.0137C62.6033 42.7197 62.7053 42.4827 62.8133 42.3027C62.8193 42.2847 62.8313 42.2517 62.8493 42.2037C62.8673 42.1497 62.8883 42.0897 62.9123 42.0237ZM65.7483 44.9037C65.5983 45.0357 65.4183 45.1017 65.2083 45.1017C65.0583 45.1017 64.9143 45.0657 64.7763 44.9937C64.6443 44.9217 64.5333 44.8227 64.4433 44.6967C64.3653 44.6007 64.3083 44.4927 64.2723 44.3727C64.2363 44.2527 64.2183 44.1057 64.2183 43.9317C64.2183 43.8717 64.2243 43.7517 64.2363 43.5717C64.2543 43.3497 64.3263 43.1187 64.4523 42.8787C64.5843 42.6387 64.7463 42.4257 64.9383 42.2397C65.1303 42.0477 65.3193 41.9157 65.5053 41.8437C65.6013 41.7837 65.6883 41.7537 65.7663 41.7537C65.8083 41.7537 65.8503 41.7567 65.8923 41.7627C65.9343 41.7687 65.9793 41.7747 66.0273 41.7807C66.1593 41.7987 66.2583 41.8257 66.3243 41.8617C66.3963 41.8917 66.4563 41.9397 66.5043 42.0057C66.6543 42.1557 66.7293 42.3297 66.7293 42.5277C66.7053 42.6717 66.6123 42.8367 66.4503 43.0227C66.2883 43.2087 66.0933 43.3587 65.8653 43.4727C65.7573 43.5087 65.6343 43.5267 65.4963 43.5267C65.3103 43.5267 65.1603 43.4877 65.0463 43.4097C64.9923 43.3917 64.9503 43.3827 64.9203 43.3827C64.8663 43.3827 64.8243 43.4187 64.7943 43.4907C64.7703 43.5627 64.7463 43.6947 64.7223 43.8867C64.7163 43.9287 64.7133 43.9887 64.7133 44.0667C64.7133 44.3727 64.8153 44.5407 65.0193 44.5707C65.1573 44.6007 65.2563 44.6157 65.3163 44.6157C65.3883 44.6157 65.4693 44.5917 65.5593 44.5437L65.7303 44.4447C65.7663 44.4267 65.7993 44.4027 65.8293 44.3727C65.8593 44.3427 65.8863 44.3157 65.9103 44.2917C65.9223 44.2797 65.9403 44.2617 65.9643 44.2377C65.9883 44.2077 66.0093 44.1897 66.0273 44.1837C66.0513 44.1717 66.0723 44.1657 66.0903 44.1657C66.1143 44.1657 66.1413 44.1807 66.1713 44.2107C66.2013 44.2347 66.2253 44.2527 66.2433 44.2647C66.2973 44.2647 66.3093 44.3037 66.2793 44.3817C66.2493 44.4537 66.1833 44.5407 66.0813 44.6427C65.9853 44.7387 65.8743 44.8257 65.7483 44.9037ZM65.7393 42.9957C65.8413 42.9537 65.9433 42.8787 66.0453 42.7707C66.1533 42.6627 66.2073 42.5727 66.2073 42.5007C66.2073 42.4287 66.1803 42.3687 66.1263 42.3207C66.0723 42.2727 65.9973 42.2487 65.9013 42.2487C65.8293 42.2487 65.7753 42.2547 65.7393 42.2667C65.6553 42.2907 65.5563 42.3567 65.4423 42.4647C65.3283 42.5667 65.2293 42.6717 65.1453 42.7797C65.0613 42.8877 65.0283 42.9507 65.0463 42.9688C65.0763 43.0227 65.1933 43.0497 65.3973 43.0497C65.5353 43.0497 65.6493 43.0317 65.7393 42.9957ZM68.2611 44.8767C68.1711 44.8947 68.1051 44.9037 68.0631 44.9037C68.0271 44.9037 67.9971 44.8977 67.9731 44.8857C67.9491 44.8677 67.9161 44.8377 67.8741 44.7957C67.7421 44.7297 67.6371 44.6367 67.5591 44.5167C67.4871 44.3907 67.4571 44.2797 67.4691 44.1837C67.4931 43.9077 67.5711 43.6047 67.7031 43.2747C67.8411 42.9447 68.0031 42.6537 68.1891 42.4017C68.3751 42.1497 68.5551 41.9937 68.7291 41.9337C68.8371 41.8917 68.9271 41.8707 68.9991 41.8707C69.1431 41.8707 69.2451 41.9307 69.3051 42.0507C69.3471 42.1347 69.3681 42.1977 69.3681 42.2397C69.3681 42.3117 69.3261 42.3597 69.2421 42.3837C69.2241 42.3837 69.2031 42.3927 69.1791 42.4107C69.1551 42.4287 69.1431 42.4467 69.1431 42.4647C69.1491 42.4707 69.1761 42.4737 69.2241 42.4737C69.3261 42.4737 69.4521 42.4587 69.6021 42.4287C69.7521 42.3987 69.8481 42.3657 69.8901 42.3297C69.9261 42.3117 69.9561 42.3027 69.9801 42.3027L70.1061 42.3207C70.2081 42.3507 70.2591 42.3867 70.2591 42.4287C70.2591 42.4527 70.2681 42.4767 70.2861 42.5007C70.3041 42.5187 70.3251 42.5277 70.3491 42.5277C70.3851 42.5337 70.3791 42.5577 70.3311 42.5997C70.2891 42.6417 70.2051 42.7107 70.0791 42.8067C70.0491 42.8247 70.0041 42.8517 69.9441 42.8877C69.8901 42.9237 69.8571 42.9537 69.8451 42.9777C69.8391 43.0017 69.8421 43.0347 69.8541 43.0767C69.8781 43.1307 69.8901 43.1967 69.8901 43.2747C69.8901 43.4727 69.8031 43.6917 69.6291 43.9317C69.4611 44.1717 69.2481 44.3817 68.9901 44.5617C68.7381 44.7417 68.4951 44.8467 68.2611 44.8767ZM68.1081 44.4807C68.1441 44.4807 68.2341 44.4447 68.3781 44.3727C68.4561 44.2947 68.5191 44.2467 68.5671 44.2287C68.6091 44.2287 68.6661 44.1987 68.7381 44.1387C68.8101 44.0727 68.9211 43.9437 69.0711 43.7517C69.1851 43.6197 69.2691 43.5087 69.3231 43.4187C69.3831 43.3287 69.4131 43.2417 69.4131 43.1577C69.4131 43.1217 69.4101 43.0947 69.4041 43.0767C69.3981 43.0587 69.3771 43.0437 69.3411 43.0317C69.3111 43.0137 69.2811 42.9987 69.2511 42.9867C69.1971 42.9867 69.1461 42.9747 69.0981 42.9507C69.0561 42.9207 68.9931 42.8727 68.9091 42.8067L68.7651 42.6267L68.6121 42.7797C68.4681 42.9237 68.3211 43.1607 68.1711 43.4907C68.0211 43.8147 67.9371 44.0667 67.9191 44.2467C67.9131 44.3307 67.9251 44.3907 67.9551 44.4267C67.9911 44.4567 68.0421 44.4747 68.1081 44.4807ZM70.9659 44.8857C70.9179 44.8257 70.8939 44.7657 70.8939 44.7057C70.8939 44.6577 70.8789 44.6337 70.8489 44.6337C70.8129 44.5977 70.8819 44.3937 71.0559 44.0217C71.2299 43.6437 71.3799 43.3557 71.5059 43.1577C71.5299 43.1397 71.5479 43.1157 71.5599 43.0857C71.5719 43.0497 71.5719 43.0317 71.5599 43.0317C71.5719 43.0137 71.5899 42.9837 71.6139 42.9417C71.6379 42.8997 71.6619 42.8637 71.6859 42.8337C71.7879 42.6357 71.8299 42.4767 71.8119 42.3567C71.7879 42.3327 71.7609 42.3237 71.7309 42.3297C71.7069 42.3357 71.6919 42.3417 71.6859 42.3477C71.6739 42.3537 71.6409 42.3657 71.5869 42.3837C71.5389 42.3957 71.4969 42.4137 71.4609 42.4377C71.3229 42.5277 71.2359 42.5728 71.1999 42.5728C71.1639 42.5728 71.1309 42.5547 71.1009 42.5187C71.0769 42.4827 71.0499 42.4227 71.0199 42.3387C71.0019 42.2847 70.9929 42.2457 70.9929 42.2217C70.9929 42.1797 71.0169 42.1377 71.0649 42.0957C71.1009 42.0597 71.1429 42.0327 71.1909 42.0147C71.2449 41.9907 71.2809 41.9727 71.2989 41.9607C71.4249 41.8887 71.5149 41.8467 71.5689 41.8347C71.6769 41.8047 71.7639 41.7897 71.8299 41.7897C72.0099 41.7897 72.1359 41.8737 72.2079 42.0417C72.2919 42.1437 72.3339 42.2607 72.3339 42.3927C72.3339 42.5067 72.2919 42.6537 72.2079 42.8337L72.1179 42.9688C72.0999 43.0047 72.0909 43.0287 72.0909 43.0407C72.0909 43.0527 72.0939 43.0587 72.0999 43.0587C72.1239 43.0587 72.1509 43.0377 72.1809 42.9957C72.2109 42.9657 72.2499 42.9297 72.2979 42.8877C72.3459 42.8397 72.3789 42.8157 72.3969 42.8157C72.4029 42.8157 72.4119 42.8127 72.4239 42.8067C72.4359 42.7947 72.4419 42.7707 72.4419 42.7347L72.5319 42.6537C72.5559 42.6537 72.6279 42.6027 72.7479 42.5007L72.9189 42.3657C72.9849 42.3177 73.0449 42.2937 73.0989 42.2937C73.1169 42.2877 73.1439 42.2847 73.1799 42.2847C73.2939 42.2847 73.3869 42.3477 73.4589 42.4737C73.5309 42.5937 73.5669 42.7497 73.5669 42.9417L73.3779 43.4277L73.7019 43.0317C73.7559 42.9657 73.8279 42.8937 73.9179 42.8157C73.9299 42.7797 73.9449 42.7587 73.9629 42.7527C73.9869 42.7407 74.0019 42.7347 74.0079 42.7347C74.0139 42.7347 74.0199 42.7317 74.0259 42.7257C74.0379 42.7197 74.0439 42.7107 74.0439 42.6987C74.0679 42.6807 74.0979 42.6597 74.1339 42.6357C74.1759 42.6057 74.2029 42.5817 74.2149 42.5637C74.2689 42.5397 74.3289 42.5277 74.3949 42.5277C74.5209 42.5277 74.6259 42.6087 74.7099 42.7707C74.7459 42.8367 74.7669 42.8967 74.7729 42.9507C74.7849 42.9987 74.7909 43.0827 74.7909 43.2027C74.7669 43.3347 74.7459 43.4727 74.7279 43.6167C74.7279 43.6407 74.7219 43.7007 74.7099 43.7967C74.6799 43.8627 74.6649 43.9647 74.6649 44.1027C74.6649 44.1867 74.6679 44.2407 74.6739 44.2647C74.6859 44.2887 74.7099 44.3007 74.7459 44.3007C74.8359 44.2827 74.9529 44.2407 75.0969 44.1747C75.2469 44.1027 75.3549 44.0337 75.4209 43.9677C75.5109 43.8777 75.5919 43.8327 75.6639 43.8327C75.7299 43.8327 75.7719 43.8687 75.7899 43.9407C75.8079 43.9767 75.7599 44.0727 75.6459 44.2287C75.5379 44.3847 75.4629 44.4627 75.4209 44.4627C75.4089 44.4627 75.3849 44.4807 75.3489 44.5167C75.3189 44.5527 75.2949 44.5767 75.2769 44.5887C75.1749 44.7027 75.0909 44.7597 75.0249 44.7597C75.0009 44.7597 74.9679 44.7687 74.9259 44.7867C74.8899 44.7987 74.8569 44.8047 74.8269 44.8047C74.8149 44.8107 74.7849 44.8137 74.7369 44.8137C74.6469 44.8137 74.5599 44.7897 74.4759 44.7417C74.3919 44.6937 74.3379 44.6217 74.3139 44.5257C74.2659 44.4057 74.2419 44.2377 74.2419 44.0217C74.2419 43.9677 74.2479 43.8807 74.2599 43.7607L74.3049 43.4817C74.3169 43.3677 74.3289 43.2987 74.3409 43.2747V43.1937C74.3409 43.0917 74.3319 43.0407 74.3139 43.0407C74.2659 43.0407 74.1069 43.1967 73.8369 43.5087C73.5669 43.8147 73.3599 44.0787 73.2159 44.3007C73.1739 44.3547 73.1259 44.4357 73.0719 44.5437C73.0239 44.6457 72.9939 44.6997 72.9819 44.7057C72.9579 44.7297 72.9309 44.7417 72.9009 44.7417C72.8649 44.7417 72.8259 44.7237 72.7839 44.6877C72.7419 44.6517 72.7059 44.6067 72.6759 44.5527C72.6519 44.4927 72.6399 44.4477 72.6399 44.4177C72.6399 44.3757 72.6579 44.2947 72.6939 44.1747C72.7299 44.0487 72.7809 43.8837 72.8469 43.6797C72.9129 43.4817 72.9669 43.3107 73.0089 43.1667C73.0569 43.0227 73.0869 42.9267 73.0989 42.8787C73.0989 42.8367 72.9489 42.9447 72.6489 43.2027C72.5889 43.2747 72.5199 43.3497 72.4419 43.4277C72.3039 43.5717 72.1479 43.7397 71.9739 43.9317C71.8059 44.1237 71.6589 44.3067 71.5329 44.4807C71.4009 44.6607 71.3019 44.7867 71.2359 44.8587C71.1759 44.9307 71.1249 44.9667 71.0829 44.9667C71.0529 44.9667 71.0139 44.9397 70.9659 44.8857ZM76.0537 47.2258C75.9877 47.2018 75.9217 47.1478 75.8557 47.0638C75.7897 46.9858 75.7567 46.9198 75.7567 46.8658C75.7567 46.7758 75.8167 46.4788 75.9367 45.9748C76.0567 45.4768 76.1737 45.0717 76.2877 44.7597C76.2937 44.7357 76.3327 44.6367 76.4047 44.4627C76.4767 44.2887 76.5457 44.0787 76.6117 43.8327C76.6597 43.6587 76.7857 43.3197 76.9897 42.8157L77.2507 42.1677L77.4577 41.6007C77.4757 41.5527 77.5057 41.5107 77.5477 41.4747C77.5957 41.4327 77.6377 41.4057 77.6737 41.3937C77.6857 41.3877 77.7067 41.3847 77.7367 41.3847C77.8207 41.3847 77.8927 41.4327 77.9527 41.5287C77.9707 41.5647 77.9797 41.6007 77.9797 41.6367C77.9797 41.6967 77.9437 41.8137 77.8717 41.9877L77.8087 42.1677L78.1327 42.0957C78.2167 42.0957 78.2857 42.0987 78.3397 42.1047C78.5557 42.1047 78.6907 42.1107 78.7447 42.1227C78.8767 42.1287 78.9697 42.1527 79.0237 42.1947C79.0837 42.2367 79.1407 42.3027 79.1947 42.3927C79.3027 42.4947 79.3627 42.5847 79.3747 42.6627C79.3867 42.7347 79.3927 42.7917 79.3927 42.8337C79.3927 43.0257 79.3357 43.2237 79.2217 43.4277C79.1077 43.6257 78.9727 43.7757 78.8167 43.8777C78.7567 43.9017 78.7057 43.9257 78.6637 43.9497C78.6217 43.9737 78.5947 43.9887 78.5827 43.9947C78.5707 44.0427 78.4327 44.1207 78.1687 44.2287C77.9107 44.3307 77.6977 44.3937 77.5297 44.4177C77.4697 44.4297 77.4007 44.4357 77.3227 44.4357C77.2567 44.4357 77.2057 44.4267 77.1697 44.4087C77.0977 44.3967 77.0497 44.3907 77.0257 44.3907C77.0077 44.3907 76.9987 44.4027 76.9987 44.4267C76.8487 44.8707 76.7257 45.2758 76.6297 45.6418C76.4197 46.2778 76.2787 46.6918 76.2067 46.8838C76.1347 47.0818 76.0837 47.1958 76.0537 47.2258ZM77.1787 43.9047C77.1847 43.9287 77.2177 43.9407 77.2777 43.9407C77.4037 43.9407 77.5957 43.8837 77.8537 43.7697C78.1177 43.6497 78.3247 43.5267 78.4747 43.4007C78.6007 43.2507 78.6967 43.1277 78.7627 43.0317C78.8347 42.9297 78.8707 42.8517 78.8707 42.7977C78.8707 42.7737 78.8587 42.7497 78.8347 42.7257C78.7747 42.6357 78.6667 42.5907 78.5107 42.5907C78.3127 42.5907 78.0757 42.6657 77.7997 42.8157C77.6797 42.8577 77.5927 42.9147 77.5387 42.9867C77.4907 43.0527 77.4457 43.1367 77.4037 43.2387C77.3617 43.3407 77.3287 43.4187 77.3047 43.4727C77.2087 43.7007 77.1667 43.8447 77.1787 43.9047ZM80.634 44.9218C80.526 44.9457 80.409 44.9127 80.283 44.8227C80.157 44.7327 80.082 44.6337 80.058 44.5257C80.052 44.5017 80.049 44.4627 80.049 44.4087C80.049 44.1867 80.133 43.9017 80.301 43.5537C80.475 43.1997 80.685 42.8757 80.931 42.5817C81.177 42.2817 81.402 42.0927 81.606 42.0147C81.732 41.9487 81.813 41.9157 81.849 41.9157C81.885 41.9157 81.966 41.9487 82.092 42.0147C82.176 42.0387 82.239 42.0657 82.281 42.0957C82.323 42.1257 82.377 42.1857 82.443 42.2757C82.521 42.4317 82.578 42.6237 82.614 42.8517C82.65 42.9777 82.668 43.0677 82.668 43.1217C82.668 43.1697 82.65 43.2117 82.614 43.2477C82.608 43.2537 82.596 43.2657 82.578 43.2837C82.566 43.3017 82.56 43.3167 82.56 43.3287C82.56 43.3347 82.566 43.3377 82.578 43.3377C82.578 43.3437 82.575 43.3587 82.569 43.3827C82.563 43.4007 82.551 43.4277 82.533 43.4637C82.461 43.6917 82.425 43.8867 82.425 44.0487C82.425 44.1027 82.431 44.1597 82.443 44.2197C82.503 44.3757 82.605 44.4537 82.749 44.4537C82.869 44.4537 82.983 44.3997 83.091 44.2917C83.187 44.2257 83.256 44.1807 83.298 44.1567C83.346 44.1267 83.37 44.1327 83.37 44.1747C83.376 44.1807 83.388 44.1897 83.406 44.2017C83.424 44.2137 83.442 44.2197 83.46 44.2197C83.502 44.2197 83.523 44.2467 83.523 44.3007C83.523 44.3547 83.502 44.4147 83.46 44.4807C83.418 44.5227 83.385 44.5587 83.361 44.5887C83.337 44.6187 83.325 44.6427 83.325 44.6607L83.19 44.7867C83.076 44.8527 82.941 44.8857 82.785 44.8857C82.623 44.8857 82.494 44.8527 82.398 44.7867C82.314 44.7267 82.233 44.6397 82.155 44.5257C82.077 44.4117 82.026 44.3097 82.002 44.2197L81.957 44.1297L81.696 44.3007C81.636 44.3607 81.567 44.4237 81.489 44.4897C81.411 44.5497 81.36 44.5917 81.336 44.6157C81.288 44.6757 81.246 44.7057 81.21 44.7057H81.12C81.12 44.7477 81.06 44.7957 80.94 44.8497C80.826 44.8977 80.724 44.9218 80.634 44.9218ZM80.544 44.4357C80.61 44.4357 80.778 44.3427 81.048 44.1567C81.318 43.9647 81.489 43.8237 81.561 43.7337L81.822 43.4637C81.918 43.3557 81.993 43.2327 82.047 43.0947C82.107 42.9567 82.137 42.8307 82.137 42.7167C82.137 42.6147 82.122 42.5427 82.092 42.5007C82.068 42.4287 82.032 42.3927 81.984 42.3927C81.96 42.3927 81.891 42.4137 81.777 42.4557C81.663 42.5277 81.501 42.6927 81.291 42.9507C81.087 43.2087 80.904 43.4757 80.742 43.7517C80.58 44.0217 80.499 44.2197 80.499 44.3457C80.499 44.3637 80.505 44.3817 80.517 44.3997C80.529 44.4177 80.538 44.4297 80.544 44.4357ZM83.1104 47.9098C82.8284 47.9098 82.5854 47.8078 82.3814 47.6038C82.3274 47.4718 82.2914 47.3908 82.2734 47.3608C82.2554 47.3368 82.1984 47.2768 82.1024 47.1808C82.1024 47.1388 82.1174 47.0788 82.1474 47.0008C82.1714 46.9228 82.2044 46.8568 82.2464 46.8028C82.5044 46.4968 82.8674 46.2628 83.3354 46.1008C83.3474 46.0948 83.3714 46.0828 83.4074 46.0648C83.4494 46.0468 83.4884 46.0378 83.5244 46.0378C83.5424 46.0378 83.5574 46.0258 83.5694 46.0018C83.5814 45.9838 83.5934 45.9688 83.6054 45.9568C83.6174 45.9508 83.6354 45.9568 83.6594 45.9748C83.6774 45.9688 83.6984 45.9538 83.7224 45.9298C83.7524 45.9118 83.7854 45.9088 83.8214 45.9208C83.8274 45.9268 83.9234 45.8998 84.1094 45.8398C84.3014 45.7858 84.4334 45.7468 84.5054 45.7228C84.5174 45.5668 84.5234 45.4468 84.5234 45.3628C84.5234 45.0987 84.4724 44.9217 84.3704 44.8317C84.3104 44.7717 84.2564 44.6877 84.2084 44.5797C84.1664 44.4657 84.1334 44.3847 84.1094 44.3367C84.1394 44.2287 84.2024 44.1537 84.2984 44.1117C84.4904 44.0157 84.7214 43.8567 84.9914 43.6347C85.2674 43.4127 85.4984 43.1727 85.6844 42.9147C85.7564 42.8127 85.7924 42.7227 85.7924 42.6447C85.7924 42.4887 85.6814 42.3987 85.4594 42.3747C85.2374 42.3747 84.9464 42.5247 84.5864 42.8247C84.5384 42.8368 84.5084 42.8428 84.4964 42.8428C84.4004 42.8428 84.3284 42.7617 84.2804 42.5997C84.2924 42.5397 84.3134 42.4887 84.3434 42.4467C84.3734 42.3987 84.4184 42.3417 84.4784 42.2757L84.5954 42.1227C84.6314 42.1047 84.6824 42.0747 84.7484 42.0327C84.8144 41.9847 84.8684 41.9487 84.9104 41.9247C84.9584 41.9007 85.0124 41.8887 85.0724 41.8887C85.0964 41.8887 85.1324 41.8827 85.1804 41.8707C85.2284 41.8527 85.2674 41.8437 85.2974 41.8437C85.5794 41.8557 85.8014 41.9637 85.9634 42.1677C86.1074 42.3537 86.1794 42.5367 86.1794 42.7167C86.1794 42.9207 86.0774 43.1967 85.8734 43.5447C85.7474 43.7367 85.4144 44.0127 84.8744 44.3727L84.6854 44.5077C84.7574 44.5977 84.8324 44.7567 84.9104 44.9847C84.9944 45.2127 85.0364 45.4018 85.0364 45.5518C85.0364 45.5878 85.0304 45.6298 85.0184 45.6778C85.0664 45.6898 85.1444 45.6838 85.2524 45.6598C85.3664 45.6418 85.4384 45.6328 85.4684 45.6328C85.4924 45.6568 85.5254 45.6898 85.5674 45.7318C85.6154 45.7738 85.6514 45.8098 85.6754 45.8398C85.6994 45.8758 85.7114 45.9088 85.7114 45.9388V45.9658C85.7114 45.9958 85.6994 46.0228 85.6754 46.0468C85.6574 46.0708 85.6334 46.0858 85.6034 46.0918C85.5734 46.0978 85.5224 46.1008 85.4504 46.1008C85.3724 46.1008 85.2884 46.1038 85.1984 46.1098C85.1084 46.1158 85.0274 46.1338 84.9554 46.1638C84.9134 46.2238 84.8714 46.2958 84.8294 46.3798C84.7874 46.4698 84.7574 46.5358 84.7394 46.5778C84.6554 46.7758 84.5654 46.9528 84.4694 47.1088C84.3734 47.2648 84.2354 47.4178 84.0554 47.5678C83.9774 47.6338 83.8994 47.6908 83.8214 47.7388C83.7434 47.7868 83.6834 47.8108 83.6414 47.8108C83.4434 47.8768 83.2664 47.9098 83.1104 47.9098ZM82.7234 47.4508C82.7234 47.4628 82.7534 47.4688 82.8134 47.4688C82.9094 47.4688 83.0234 47.4538 83.1554 47.4238C83.2874 47.3938 83.4014 47.3518 83.4974 47.2978C83.6774 47.1898 83.8604 46.9978 84.0464 46.7218C84.1244 46.6018 84.1784 46.4908 84.2084 46.3888C84.1904 46.3708 84.1664 46.3618 84.1364 46.3618C84.0944 46.3618 84.0434 46.3768 83.9834 46.4067C83.9234 46.4368 83.8844 46.4548 83.8664 46.4608C83.8424 46.4728 83.8124 46.4848 83.7764 46.4968C83.7464 46.5148 83.7074 46.5328 83.6594 46.5508C83.4854 46.6108 83.3054 46.6888 83.1194 46.7848C82.9394 46.8868 82.8044 46.9918 82.7144 47.0998C82.6544 47.1778 82.5824 47.2498 82.4984 47.3158C82.5704 47.4058 82.6454 47.4508 82.7234 47.4508ZM88.8294 45.2007C88.6854 45.0627 88.5774 44.8587 88.5054 44.5887C88.4934 44.5527 88.4874 44.4897 88.4874 44.3997C88.4874 44.3097 88.4874 44.2467 88.4874 44.2107C88.4514 44.3007 88.3854 44.3817 88.2894 44.4537C88.1514 44.5917 88.0134 44.6937 87.8754 44.7597C87.6654 44.8977 87.4944 44.9667 87.3624 44.9667C87.2424 44.9667 87.1284 44.9007 87.0204 44.7687C86.9424 44.7027 86.8824 44.6367 86.8404 44.5707C86.8044 44.5047 86.7864 44.4237 86.7864 44.3277C86.7864 44.2617 86.7954 44.1897 86.8134 44.1117C86.8254 43.8897 86.8554 43.6767 86.9034 43.4727C86.9574 43.2687 87.0564 43.0077 87.2004 42.6897C87.3924 42.3117 87.5304 42.0597 87.6144 41.9337C87.6444 41.9217 87.6834 41.9157 87.7314 41.9157C87.7914 41.9157 87.8394 41.9337 87.8754 41.9697C87.9174 42.0057 87.9414 42.0537 87.9474 42.1137C87.9654 42.1377 87.9744 42.1707 87.9744 42.2127C87.9744 42.3627 87.8844 42.6087 87.7044 42.9507C87.4704 43.5147 87.3534 43.9047 87.3534 44.1207C87.3534 44.2467 87.3894 44.3217 87.4614 44.3457C87.4914 44.3637 87.5244 44.3727 87.5604 44.3727C87.7104 44.3727 87.8904 44.2707 88.1004 44.0667C88.3104 43.8627 88.5114 43.5357 88.7034 43.0857C88.7874 42.8817 88.8384 42.6717 88.8564 42.4557C88.8504 42.4377 88.8474 42.4107 88.8474 42.3747C88.8474 42.2667 88.9014 42.1797 89.0094 42.1137C89.0334 42.0777 89.0664 42.0507 89.1084 42.0327C89.1504 42.0087 89.1774 42.0087 89.1894 42.0327L89.3334 42.0237C89.3514 42.0177 89.3694 42.0357 89.3874 42.0777C89.4054 42.1137 89.4234 42.1377 89.4414 42.1497C89.4834 42.1857 89.5044 42.2517 89.5044 42.3477C89.5044 42.5457 89.4174 42.8487 89.2434 43.2567C89.1294 43.4967 89.0514 43.6827 89.0094 43.8147C88.9734 43.9407 88.9524 44.0637 88.9464 44.1837C88.9464 44.4117 89.0334 44.6007 89.2074 44.7507C89.2674 44.7927 89.3034 44.8377 89.3154 44.8857C89.3274 44.9337 89.3304 44.9997 89.3244 45.0837C89.3124 45.1377 89.2764 45.1827 89.2164 45.2188C89.1624 45.2488 89.1024 45.2638 89.0364 45.2638C88.9584 45.2638 88.8894 45.2428 88.8294 45.2007ZM94.4644 45.0387C94.4044 45.0507 94.3624 45.0567 94.3384 45.0567C94.2484 45.0567 94.1614 45.0297 94.0774 44.9757C94.0654 44.9517 94.0474 44.9187 94.0234 44.8767C93.9994 44.8287 93.9814 44.7867 93.9694 44.7507C93.9634 44.7087 93.9664 44.6727 93.9784 44.6427C93.9904 44.6127 93.9994 44.5677 94.0054 44.5077C94.0174 44.4417 94.0264 44.3937 94.0324 44.3637C94.0444 44.1897 94.0654 44.0697 94.0954 44.0037C94.1074 43.9797 94.1134 43.9587 94.1134 43.9407C94.1194 43.8867 94.1374 43.8087 94.1674 43.7067C94.1974 43.5987 94.2154 43.5267 94.2214 43.4907C94.2334 43.4247 94.2484 43.3137 94.2664 43.1577C94.2904 43.0017 94.3024 42.8937 94.3024 42.8337C94.3024 42.8157 94.3114 42.7917 94.3294 42.7617C94.3474 42.7317 94.3474 42.7017 94.3294 42.6717C94.1734 42.8217 93.9814 43.0287 93.7534 43.2927C93.5314 43.5507 93.3724 43.7607 93.2764 43.9227C93.2824 43.9107 93.2524 43.9497 93.1864 44.0397C93.1684 44.0637 93.1384 44.0967 93.0964 44.1387C93.0604 44.1747 93.0334 44.2137 93.0154 44.2557C92.9554 44.3157 92.8834 44.3997 92.7994 44.5077C92.6794 44.6517 92.5804 44.7567 92.5024 44.8227C92.4544 44.8347 92.4064 44.8347 92.3584 44.8227C92.3164 44.8107 92.2714 44.7957 92.2234 44.7777C92.1754 44.7537 92.1334 44.7357 92.0974 44.7237L92.0074 44.5347L92.0794 44.1027C92.1154 43.8927 92.1454 43.6767 92.1694 43.4547C92.1994 43.2327 92.2114 43.0707 92.2054 42.9688L92.1964 42.9058C92.1964 42.8817 92.2054 42.8577 92.2234 42.8337L92.2324 42.7707C92.2144 42.7527 92.2054 42.7347 92.2054 42.7167C92.2054 42.7047 92.2084 42.6867 92.2144 42.6627C92.2264 42.6327 92.2264 42.6087 92.2144 42.5907L92.1604 42.5547C92.0824 42.6807 91.9864 42.8157 91.8724 42.9597C91.7584 43.0977 91.6804 43.1907 91.6384 43.2387L91.2874 43.6797C91.2574 43.7277 91.1884 43.8357 91.0804 44.0037C90.9424 44.2557 90.8164 44.4327 90.7024 44.5347C90.6664 44.5707 90.6244 44.6187 90.5764 44.6787C90.5284 44.7327 90.4834 44.7747 90.4414 44.8047C90.4174 44.8887 90.3544 44.9307 90.2524 44.9307C90.1564 44.9307 90.0634 44.9007 89.9734 44.8407C89.8834 44.7747 89.8384 44.7057 89.8384 44.6337C89.8384 44.5857 89.8564 44.5437 89.8924 44.5077L89.9194 44.4447C90.0214 44.4027 90.1264 44.3247 90.2344 44.2107C90.3424 44.0967 90.4744 43.9407 90.6304 43.7427C90.7684 43.5687 90.8584 43.4577 90.9004 43.4097C90.9724 43.3317 91.0444 43.2297 91.1164 43.1037C91.1404 43.0677 91.1644 43.0317 91.1884 42.9957C91.2124 42.9537 91.2424 42.9117 91.2784 42.8697C91.3144 42.8277 91.4194 42.6837 91.5934 42.4377C91.6114 42.4137 91.6744 42.3267 91.7824 42.1767C91.8964 42.0207 92.0074 41.8887 92.1154 41.7807C92.2234 41.8407 92.3164 41.8707 92.3944 41.8707C92.4544 41.9487 92.5144 42.0147 92.5744 42.0687C92.7184 42.1947 92.7904 42.4167 92.7904 42.7347C92.7904 42.9387 92.7574 43.2177 92.6914 43.5717L92.6464 43.8507L92.6554 43.8777C92.7754 43.7697 92.9194 43.5987 93.0874 43.3647L93.3304 43.0587C93.6184 42.7227 93.8104 42.5067 93.9064 42.4107C94.0024 42.3087 94.0954 42.2217 94.1854 42.1497C94.3714 41.9817 94.5034 41.8617 94.5814 41.7897H94.8514C94.8874 41.8197 94.9204 41.8437 94.9504 41.8617C94.9864 41.8737 95.0284 41.8857 95.0764 41.8977C95.0824 41.9217 95.0914 41.9667 95.1034 42.0327C95.1214 42.0987 95.1274 42.1437 95.1214 42.1677C95.1094 42.1977 95.1004 42.2397 95.0944 42.2937C95.0944 42.3417 95.0824 42.3837 95.0584 42.4197C94.9984 42.5157 94.9384 42.6987 94.8784 42.9688C94.8244 43.2327 94.7914 43.4427 94.7794 43.5987C94.7614 43.6947 94.7374 43.7697 94.7074 43.8237C94.6774 43.8777 94.6594 43.9197 94.6534 43.9497C94.6474 43.9737 94.6444 44.0097 94.6444 44.0577C94.6444 44.1357 94.6354 44.1957 94.6174 44.2377C94.6114 44.2437 94.6054 44.2497 94.5994 44.2557V44.3997C94.5994 44.4957 94.5874 44.5647 94.5634 44.6067C94.5694 44.6247 94.5724 44.6547 94.5724 44.6967V44.7687C94.5724 44.8227 94.5784 44.8617 94.5904 44.8857L94.4644 45.0387ZM96.4627 44.9577C96.4027 44.9697 96.3487 44.9757 96.3007 44.9757C96.2227 44.9757 96.1507 44.9697 96.0847 44.9577C96.0187 44.9397 95.9857 44.9187 95.9857 44.8947C95.9857 44.8767 95.9827 44.8647 95.9767 44.8587C95.9707 44.8527 95.9587 44.8497 95.9407 44.8497C95.9347 44.8437 95.9167 44.8287 95.8867 44.8047C95.8567 44.7807 95.8207 44.7597 95.7787 44.7417C95.7247 44.6577 95.6977 44.5677 95.6977 44.4717C95.6977 44.3697 95.7247 44.2107 95.7787 43.9947C95.7967 43.8027 95.8867 43.5627 96.0487 43.2747C96.2107 42.9867 96.3997 42.7137 96.6157 42.4557C96.8377 42.1977 97.0357 42.0177 97.2097 41.9157C97.2997 41.8257 97.4137 41.7807 97.5517 41.7807C97.6597 41.7807 97.7617 41.8077 97.8577 41.8617C97.9417 41.9097 98.0287 41.9907 98.1187 42.1047C98.2147 42.2187 98.2897 42.3357 98.3437 42.4557C98.3677 42.5457 98.3797 42.6327 98.3797 42.7167C98.3797 42.8067 98.3677 42.9477 98.3437 43.1397C98.3137 43.2477 98.2867 43.3797 98.2627 43.5357C98.2447 43.6917 98.2357 43.8267 98.2357 43.9407C98.2237 44.0247 98.2297 44.0937 98.2537 44.1477C98.2777 44.1957 98.3107 44.2197 98.3527 44.2197C98.3827 44.2197 98.4157 44.2107 98.4517 44.1927C98.5117 44.1627 98.5777 44.1477 98.6497 44.1477C98.7157 44.1477 98.7697 44.1657 98.8117 44.2017C98.8537 44.2377 98.8747 44.2917 98.8747 44.3637C98.8747 44.4717 98.7997 44.5797 98.6497 44.6877C98.5057 44.7957 98.3677 44.8497 98.2357 44.8497C98.1457 44.8497 98.0617 44.7807 97.9837 44.6427C97.9117 44.4987 97.8397 44.3157 97.7677 44.0938L97.7137 43.8867L97.3267 44.2557L97.1197 44.4627C97.0237 44.5587 96.9697 44.6157 96.9577 44.6337C96.8917 44.7477 96.7267 44.8557 96.4627 44.9577ZM96.4897 44.4267C96.6337 44.3427 96.8107 44.1957 97.0207 43.9857C97.2307 43.7757 97.4047 43.5747 97.5427 43.3827C97.7287 43.1367 97.8457 42.8937 97.8937 42.6537C97.8697 42.5817 97.8307 42.5097 97.7767 42.4377C97.7227 42.3657 97.6747 42.3267 97.6327 42.3207C97.5127 42.3207 97.3867 42.3897 97.2547 42.5277C97.1227 42.6657 96.9667 42.8577 96.7867 43.1037L96.4897 43.5447C96.4537 43.5927 96.3907 43.7217 96.3007 43.9317C96.2107 44.1357 96.1657 44.2587 96.1657 44.3007C96.1657 44.4327 96.2047 44.4987 96.2827 44.4987C96.3427 44.4987 96.4117 44.4747 96.4897 44.4267Z" fill="white"/>
<path d="M32.3757 20.9868L31.3997 20.6828C30.8877 21.4721 30.3437 22.8908 29.7677 24.9388C29.5331 25.7494 29.2717 26.6081 28.9837 27.5148C28.7064 28.4108 28.3811 29.2534 28.0077 30.0428C27.6451 30.8214 27.2237 31.5307 26.7437 32.1708C26.2744 32.8107 25.6877 33.3174 24.9837 33.6908C24.2797 34.0641 23.4904 34.2507 22.6157 34.2507C21.0477 34.2507 19.9064 33.6907 19.1917 32.5707C18.7971 31.9414 18.5997 31.2641 18.5997 30.5388C18.5997 30.2401 18.6317 29.9361 18.6957 29.6267C18.9197 28.5921 19.4264 27.8561 20.2157 27.4188C20.6317 27.1841 21.0957 27.0668 21.6077 27.0668C22.7064 27.0668 23.4477 27.4934 23.8317 28.3468C23.9917 28.6988 24.0717 29.0614 24.0717 29.4347C24.0717 29.7974 23.9971 30.1654 23.8477 30.5388C23.4851 31.4348 22.8931 31.8828 22.0717 31.8828C21.9437 31.8828 21.8371 31.8561 21.7517 31.8027C21.6664 31.7388 21.6024 31.6481 21.5597 31.5308C21.8477 31.5308 22.1197 31.4561 22.3757 31.3068C22.8024 31.0507 23.1331 30.5867 23.3677 29.9148C23.4424 29.6908 23.4797 29.5094 23.4797 29.3708C23.4797 29.2214 23.4691 29.0561 23.4477 28.8748C23.4264 28.6828 23.3571 28.4641 23.2397 28.2188C23.1224 27.9734 22.9197 27.7761 22.6317 27.6268C22.3437 27.4774 22.0024 27.4028 21.6077 27.4028C20.5944 27.4028 19.8477 27.8508 19.3677 28.7468C19.0904 29.2588 18.9517 29.7441 18.9517 30.2027C18.9517 30.6614 18.9997 31.0721 19.0957 31.4347C19.3731 32.4481 19.9544 33.1468 20.8397 33.5308C21.2557 33.7121 21.7837 33.8027 22.4237 33.8027C23.0637 33.8027 23.7091 33.6214 24.3597 33.2587C25.0211 32.9067 25.5864 32.4267 26.0557 31.8188C26.5357 31.2001 26.9677 30.5121 27.3517 29.7548C27.7357 28.9974 28.0824 28.1814 28.3917 27.3067C28.7117 26.4214 28.9997 25.5841 29.2557 24.7948C29.9384 22.7681 30.5304 21.3548 31.0317 20.5548C29.4211 20.0534 28.2531 19.8028 27.5277 19.8028C26.1517 19.8028 25.1277 20.3254 24.4557 21.3707C24.0717 21.9681 23.8797 22.5814 23.8797 23.2108C23.8797 23.3921 23.9011 23.5787 23.9437 23.7708C24.0611 24.4748 24.3757 24.8961 24.8877 25.0347C24.9837 25.0561 25.0797 25.0667 25.1757 25.0667C25.1117 25.2908 24.9357 25.4028 24.6477 25.4028C23.9971 25.4028 23.5384 25.0561 23.2717 24.3627C23.1437 24.0321 23.0797 23.6641 23.0797 23.2588C23.0797 22.8534 23.1864 22.4001 23.3997 21.8988C23.8477 20.8214 24.6371 20.0854 25.7677 19.6908C26.3011 19.5094 26.9091 19.4188 27.5917 19.4188C28.2851 19.4188 29.5011 19.6961 31.2397 20.2508C31.7624 19.5041 32.3597 19.1308 33.0317 19.1308C33.1171 19.1308 33.1811 19.1574 33.2237 19.2108C33.2664 19.2641 33.2931 19.3388 33.3037 19.4348C32.6744 19.4348 32.1144 19.7494 31.6237 20.3787C32.1037 20.5281 32.4131 20.6294 32.5517 20.6828C32.9997 19.9041 33.4211 19.5148 33.8157 19.5148C33.9971 19.5148 34.1037 19.5681 34.1357 19.6747L34.1517 19.7228C33.8531 19.7228 33.5384 20.1174 33.2077 20.9068L35.4957 21.6427C36.2104 20.2988 36.9571 19.6268 37.7357 19.6268C37.8424 19.6268 37.9277 19.6534 37.9917 19.7068C38.0557 19.7601 38.0984 19.8401 38.1197 19.9468C37.3197 19.9468 36.5837 20.5548 35.9117 21.7708C36.4877 21.9201 36.8451 22.0054 36.9837 22.0268C37.6131 20.7788 38.1784 20.1548 38.6797 20.1548C38.8611 20.1548 38.9677 20.2081 38.9997 20.3147L39.0157 20.3628C38.6637 20.3628 38.2371 20.9548 37.7357 22.1387C37.8104 22.1494 37.9117 22.1548 38.0397 22.1548C39.0957 22.1548 39.8371 21.8401 40.2637 21.2108C40.4451 20.9654 40.5357 20.7574 40.5357 20.5867C40.5357 20.1068 40.3224 19.8668 39.8957 19.8668C39.9917 19.7174 40.1464 19.6428 40.3597 19.6428C40.7757 19.6428 41.0477 19.8508 41.1757 20.2668C41.2077 20.3948 41.2237 20.5174 41.2237 20.6348C41.2237 20.9868 41.0744 21.3334 40.7757 21.6748C40.2531 22.2508 39.4477 22.5388 38.3597 22.5388C38.1037 22.5388 37.8531 22.5174 37.6077 22.4748C37.1384 23.6801 36.7331 25.0721 36.3917 26.6507C36.0611 28.2294 35.8957 29.6374 35.8957 30.8748C35.8957 32.1121 36.1464 32.7307 36.6477 32.7307C36.5411 32.9441 36.3864 33.0508 36.1837 33.0508C35.3517 33.0508 34.9357 32.1388 34.9357 30.3148C34.9357 29.2374 35.1064 27.9574 35.4477 26.4747C35.7891 24.9814 36.2531 23.6001 36.8397 22.3308C36.5624 22.2774 36.1997 22.1868 35.7517 22.0587C35.2824 22.9761 34.7864 24.3201 34.2637 26.0907C33.7517 27.8507 33.2931 29.2961 32.8877 30.4268C32.4931 31.5574 32.0931 32.1228 31.6877 32.1228C30.8771 32.1228 30.4717 31.1521 30.4717 29.2108C30.4717 28.0268 30.6424 26.6401 30.9837 25.0508C31.3357 23.4614 31.7997 22.1068 32.3757 20.9868ZM31.5437 29.8668C31.5437 30.7628 31.6504 31.2107 31.8637 31.2107C32.0877 31.2107 32.3597 30.6988 32.6797 29.6748C33.0104 28.6508 33.4157 27.3388 33.8957 25.7387C34.3864 24.1388 34.8664 22.8748 35.3357 21.9468C34.3757 21.6481 33.6237 21.4081 33.0797 21.2267C32.6104 22.4854 32.2211 24.1121 31.9117 26.1068C31.6664 27.7174 31.5437 28.9708 31.5437 29.8668ZM39.4704 29.8828C39.4704 31.1734 39.929 31.8188 40.8464 31.8188C41.1877 31.8188 41.545 31.6694 41.9184 31.3708C42.3024 31.0614 42.649 30.6934 42.9584 30.2668C43.641 29.2854 44.121 28.4854 44.3984 27.8668L44.6064 27.4188H45.0384C44.857 27.8454 44.5904 28.3734 44.2384 29.0028C43.8864 29.6214 43.5504 30.1441 43.2304 30.5707C42.9104 30.9974 42.5317 31.3867 42.0944 31.7387C41.657 32.0801 41.241 32.2507 40.8464 32.2507C39.2677 32.2507 38.4784 31.3654 38.4784 29.5947C38.4784 28.7734 38.7184 27.9521 39.1984 27.1308C39.8597 25.9894 40.6757 25.4187 41.6464 25.4187C42.329 25.4187 42.6704 25.7921 42.6704 26.5388C42.6704 27.0934 42.457 27.6694 42.0304 28.2668C41.433 29.0774 40.7344 29.4881 39.9344 29.4988C39.817 29.4988 39.7424 29.4454 39.7104 29.3388L39.6944 29.2747C40.249 29.2747 40.777 28.9121 41.2784 28.1867C41.7904 27.4508 42.0464 26.8374 42.0464 26.3468C42.0464 26.0161 41.9184 25.8508 41.6624 25.8508C41.097 25.8508 40.569 26.3468 40.0784 27.3388C39.673 28.1814 39.4704 29.0294 39.4704 29.8828ZM48.8857 26.3788C49.1524 26.3788 49.2857 26.6028 49.2857 27.0508C49.2857 27.3708 49.1097 28.2988 48.7577 29.8348C48.4057 31.3601 48.0911 32.6241 47.8137 33.6267C47.5364 34.6294 47.2751 35.3707 47.0297 35.8507C46.7844 36.3414 46.4857 36.8321 46.1337 37.3227C45.7924 37.8134 45.4137 38.1494 44.9977 38.3307C44.5817 38.5121 44.1017 38.6027 43.5577 38.6027C42.5444 38.6027 42.0377 38.0854 42.0377 37.0507C42.0377 36.4427 42.2671 35.7867 42.7257 35.0827C43.3871 34.0481 44.2724 33.3654 45.3817 33.0347C45.7764 32.9174 46.1871 32.8587 46.6137 32.8587C46.6884 32.8587 46.7257 32.9334 46.7257 33.0827C46.7257 33.2321 46.6884 33.3067 46.6137 33.3067C45.3551 33.3067 44.2991 33.8027 43.4457 34.7947C42.8164 35.5414 42.5017 36.2614 42.5017 36.9548C42.5017 37.6481 42.7684 38.0481 43.3017 38.1547L43.5577 38.1708C44.4324 38.1708 45.1257 37.8081 45.6377 37.0827C46.1604 36.3467 46.5711 35.4187 46.8697 34.2987C47.1684 33.1681 47.5524 31.3974 48.0217 28.9868H47.8937C46.7417 31.1521 45.7924 32.2347 45.0457 32.2347C44.2031 32.2347 43.7817 31.6001 43.7817 30.3308C43.7817 29.5948 43.9737 28.7894 44.3577 27.9148C44.8911 26.7308 45.5684 25.9574 46.3897 25.5947C46.6777 25.4774 46.9657 25.4187 47.2537 25.4187C47.5524 25.4187 47.7871 25.5041 47.9577 25.6748C48.1284 25.8454 48.2137 26.0374 48.2137 26.2508C48.2137 26.3468 48.1604 26.3948 48.0537 26.3948C47.9577 26.3841 47.9097 26.3308 47.9097 26.2348C47.9097 26.1387 47.8564 26.0534 47.7497 25.9787C47.6537 25.8934 47.5097 25.8508 47.3177 25.8508C46.6457 25.8508 46.0377 26.4534 45.4937 27.6587C44.9817 28.7788 44.7257 29.8401 44.7257 30.8428C44.7257 31.4614 44.8591 31.7708 45.1257 31.7708C45.4777 31.7708 45.9364 31.3548 46.5017 30.5228C47.3551 29.2641 48.0217 28.0321 48.5017 26.8267C48.6297 26.5281 48.7577 26.3788 48.8857 26.3788ZM52.5207 22.6348C52.766 22.6348 52.8887 22.8001 52.8887 23.1307C52.8887 23.4614 52.7287 23.7281 52.4087 23.9308C52.2487 24.0374 52.11 24.0908 51.9927 24.0908C51.822 24.0908 51.7207 24.0374 51.6887 23.9308L51.6727 23.8828C51.7687 23.8828 51.838 23.7814 51.8807 23.5788C51.9233 23.3654 51.9873 23.1574 52.0727 22.9547C52.1687 22.7414 52.318 22.6348 52.5207 22.6348ZM51.4967 31.8348C51.774 31.8348 52.1633 31.4668 52.6647 30.7307C53.166 29.9947 53.598 29.2587 53.9607 28.5228L54.5047 27.4188H54.9367C54.8727 27.5468 54.7873 27.7228 54.6807 27.9468C54.5847 28.1601 54.3873 28.5494 54.0887 29.1148C53.79 29.6694 53.502 30.1601 53.2247 30.5868C52.958 31.0134 52.654 31.4028 52.3127 31.7548C51.982 32.0961 51.694 32.2667 51.4487 32.2667C50.6593 32.2667 50.2647 31.7547 50.2647 30.7307C50.2647 29.9628 50.4833 28.7148 50.9207 26.9868C50.9633 26.8054 50.9953 26.6668 51.0167 26.5708C51.0487 26.4748 51.0807 26.3521 51.1127 26.2028C51.1447 26.0428 51.1767 25.8988 51.2087 25.7707C51.262 25.5468 51.358 25.4348 51.4967 25.4348C51.6887 25.4348 51.8273 25.5734 51.9127 25.8508C51.9553 25.9788 51.9767 26.1334 51.9767 26.3148C51.9767 26.4961 51.9553 26.6881 51.9127 26.8908C51.87 27.0828 51.8007 27.3707 51.7047 27.7548C51.6087 28.1388 51.534 28.4534 51.4807 28.6988C51.4273 28.9441 51.3687 29.2427 51.3047 29.5947C51.1873 30.1814 51.1287 30.7041 51.1287 31.1628C51.1287 31.6108 51.2513 31.8348 51.4967 31.8348ZM54.8645 29.9467C54.8645 31.1948 55.2965 31.8188 56.1605 31.8188C56.5019 31.8188 56.8592 31.6694 57.2325 31.3708C57.6165 31.0614 57.9632 30.6934 58.2725 30.2668C58.9552 29.2854 59.4352 28.4854 59.7125 27.8668L59.9205 27.4188H60.3525C60.1712 27.8454 59.9045 28.3734 59.5525 29.0028C59.2005 29.6214 58.8645 30.1441 58.5445 30.5707C58.2245 30.9974 57.8459 31.3867 57.4085 31.7387C56.9712 32.0801 56.5552 32.2507 56.1605 32.2507C55.0512 32.2507 54.3472 31.7441 54.0485 30.7307C53.9525 30.4108 53.9045 30.0108 53.9045 29.5308C53.9045 29.0401 54.0539 28.4428 54.3525 27.7388C54.7899 26.6934 55.3872 25.9894 56.1445 25.6267C56.4432 25.4881 56.7365 25.4187 57.0245 25.4187C57.3232 25.4187 57.5579 25.4988 57.7285 25.6588C57.9312 25.8508 58.0325 26.0747 58.0325 26.3307C58.0325 26.5761 58.0059 26.8054 57.9525 27.0188C57.8992 27.2321 57.7872 27.4241 57.6165 27.5948C57.4565 27.7548 57.2752 27.8347 57.0725 27.8347C56.9872 27.8347 56.9232 27.7761 56.8805 27.6587C56.9659 27.6587 57.0779 27.5094 57.2165 27.2107C57.3659 26.9014 57.4405 26.5974 57.4405 26.2987C57.4405 26.0001 57.3125 25.8508 57.0565 25.8508C56.5019 25.8508 55.9952 26.3148 55.5365 27.2428C55.0885 28.1708 54.8645 29.0721 54.8645 29.9467ZM68.5709 22.0268L71.3069 22.2027C71.8189 21.0401 72.4749 20.4588 73.2749 20.4588C73.4242 20.4588 73.5256 20.5281 73.5789 20.6667L73.5949 20.7307C72.9442 20.7307 72.4322 21.2054 72.0589 22.1548C73.1362 21.9841 73.8936 21.5254 74.3309 20.7788C74.5016 20.4801 74.5869 20.2401 74.5869 20.0588C74.5869 19.6321 74.4376 19.4188 74.1389 19.4188C74.2029 19.2374 74.3309 19.1468 74.5229 19.1468C74.8856 19.1468 75.0669 19.3974 75.0669 19.8988C75.0669 20.3894 74.8696 20.8694 74.4749 21.3388C73.8989 22.0321 73.0456 22.4374 71.9149 22.5548C71.6802 23.3228 71.4882 24.2828 71.3389 25.4348C71.1896 26.5868 71.1042 27.2321 71.0829 27.3708C71.4882 27.0828 72.1869 26.6081 73.1789 25.9467C74.1709 25.2854 74.8162 24.8534 75.1149 24.6508C75.5949 22.9121 76.2136 21.4721 76.9709 20.3308C77.7389 19.1894 78.5442 18.6187 79.3869 18.6187C79.6749 18.6187 79.8989 18.7094 80.0589 18.8908C80.2296 19.0721 80.3149 19.3068 80.3149 19.5948C80.3149 20.3734 79.9416 21.1681 79.1949 21.9788C78.4482 22.7894 77.4082 23.6641 76.0749 24.6028C75.5949 26.5334 75.3549 28.4001 75.3549 30.2027C75.3549 31.8027 75.5842 32.9974 76.0429 33.7868C76.4056 34.4054 76.8962 34.7147 77.5149 34.7147C77.4509 34.9281 77.3016 35.0347 77.0669 35.0347C76.3522 35.0347 75.7762 34.7467 75.3389 34.1707C74.6776 33.3174 74.3469 31.9414 74.3469 30.0428C74.3469 28.5708 74.5389 27.0241 74.9229 25.4028C72.5122 27.0028 71.2056 27.8721 71.0029 28.0107C70.6829 30.1548 70.2722 31.6161 69.7709 32.3947C69.2909 33.1201 68.6829 33.4827 67.9469 33.4827C67.6056 33.4827 67.3336 33.3654 67.1309 33.1307C66.9282 32.8961 66.8269 32.5814 66.8269 32.1868C66.8269 31.1094 67.8562 29.7921 69.9149 28.2348C70.3736 25.4081 70.7842 23.5254 71.1469 22.5868L68.7629 22.4108C67.4722 22.4108 66.5496 22.9014 65.9949 23.8828C65.7282 24.3734 65.5949 24.8641 65.5949 25.3548C65.5949 25.6107 65.6269 25.8614 65.6909 26.1068C65.8936 26.8641 66.2936 27.2428 66.8909 27.2428C66.8909 27.3281 66.8482 27.4081 66.7629 27.4827C66.6882 27.5574 66.5869 27.5948 66.4589 27.5948C65.7762 27.5948 65.3016 27.2428 65.0349 26.5388C64.9176 26.2294 64.8589 25.8774 64.8589 25.4828C64.8589 25.0881 64.9709 24.6401 65.1949 24.1388C65.6322 23.1361 66.3682 22.4854 67.4029 22.1868C67.7656 22.0801 68.1549 22.0268 68.5709 22.0268ZM79.8989 19.5788C79.8989 19.1734 79.7282 18.9707 79.3869 18.9707C78.8322 18.9707 78.2776 19.4241 77.7229 20.3308C77.1789 21.2268 76.7042 22.3894 76.2989 23.8188C77.4402 22.9868 78.3256 22.2294 78.9549 21.5468C79.5842 20.8534 79.8989 20.1974 79.8989 19.5788ZM67.2429 32.2028C67.2429 32.7894 67.4669 33.0827 67.9149 33.0827C68.3736 33.0827 68.7416 32.7254 69.0189 32.0107C69.2962 31.2961 69.5576 30.2508 69.8029 28.8748C68.0962 30.1974 67.2429 31.3068 67.2429 32.2028ZM78.9324 32.2347C78.0898 32.2347 77.6684 31.6001 77.6684 30.3308C77.6684 29.5948 77.8604 28.7894 78.2444 27.9148C78.7778 26.7308 79.4551 25.9574 80.2764 25.5947C80.5644 25.4774 80.8524 25.4187 81.1404 25.4187C81.4391 25.4187 81.6738 25.5041 81.8444 25.6748C82.0151 25.8454 82.1004 26.0374 82.1004 26.2508C82.1004 26.3468 82.0471 26.3948 81.9404 26.3948C81.8444 26.3841 81.7964 26.3308 81.7964 26.2348C81.7964 26.1387 81.7431 26.0534 81.6364 25.9787C81.5404 25.8934 81.3964 25.8508 81.2044 25.8508C80.5324 25.8508 79.9244 26.4534 79.3804 27.6587C78.8684 28.7788 78.6124 29.8401 78.6124 30.8428C78.6124 31.4614 78.7458 31.7708 79.0124 31.7708C79.2898 31.7708 79.6204 31.5414 80.0044 31.0827C80.3991 30.6134 80.7618 30.0694 81.0924 29.4507C81.8071 28.1494 82.2284 27.3121 82.3564 26.9388C82.4844 26.5654 82.6231 26.3788 82.7724 26.3788C83.0391 26.3788 83.1724 26.6028 83.1724 27.0508C83.1724 27.1894 83.1564 27.3494 83.1244 27.5308C82.7724 29.2374 82.5804 30.2241 82.5484 30.4908C82.5271 30.7574 82.5164 30.9494 82.5164 31.0668C82.5164 31.5788 82.6391 31.8348 82.8844 31.8348C83.1618 31.8348 83.5511 31.4668 84.0524 30.7307C84.5538 29.9947 84.9858 29.2587 85.3484 28.5228L85.8924 27.4188H86.3244C86.2604 27.5468 86.1751 27.7228 86.0684 27.9468C85.9724 28.1601 85.7751 28.5494 85.4764 29.1148C85.1778 29.6694 84.8898 30.1601 84.6124 30.5868C84.3458 31.0134 84.0418 31.4028 83.7004 31.7548C83.3698 32.0961 83.0818 32.2667 82.8364 32.2667C82.0471 32.2667 81.6524 31.6908 81.6524 30.5388C81.6524 30.1548 81.6951 29.7068 81.7804 29.1948H81.6684C80.5804 31.2214 79.6684 32.2347 78.9324 32.2347ZM87.5792 22.6348C87.8246 22.6348 87.9472 22.8001 87.9472 23.1307C87.9472 23.4614 87.7872 23.7281 87.4672 23.9308C87.3072 24.0374 87.1686 24.0908 87.0512 24.0908C86.8806 24.0908 86.7792 24.0374 86.7472 23.9308L86.7312 23.8828C86.8272 23.8828 86.8966 23.7814 86.9392 23.5788C86.9819 23.3654 87.0459 23.1574 87.1312 22.9547C87.2272 22.7414 87.3766 22.6348 87.5792 22.6348ZM86.5552 31.8348C86.8326 31.8348 87.2219 31.4668 87.7232 30.7307C88.2246 29.9947 88.6566 29.2587 89.0192 28.5228L89.5632 27.4188H89.9952C89.9312 27.5468 89.8459 27.7228 89.7392 27.9468C89.6432 28.1601 89.4459 28.5494 89.1472 29.1148C88.8486 29.6694 88.5606 30.1601 88.2832 30.5868C88.0166 31.0134 87.7126 31.4028 87.3712 31.7548C87.0406 32.0961 86.7526 32.2667 86.5072 32.2667C85.7179 32.2667 85.3232 31.7547 85.3232 30.7307C85.3232 29.9628 85.5419 28.7148 85.9792 26.9868C86.0219 26.8054 86.0539 26.6668 86.0752 26.5708C86.1072 26.4748 86.1392 26.3521 86.1712 26.2028C86.2032 26.0428 86.2352 25.8988 86.2672 25.7707C86.3206 25.5468 86.4166 25.4348 86.5552 25.4348C86.7472 25.4348 86.8859 25.5734 86.9712 25.8508C87.0139 25.9788 87.0352 26.1334 87.0352 26.3148C87.0352 26.4961 87.0139 26.6881 86.9712 26.8908C86.9286 27.0828 86.8592 27.3707 86.7632 27.7548C86.6672 28.1388 86.5926 28.4534 86.5392 28.6988C86.4859 28.9441 86.4272 29.2427 86.3632 29.5947C86.2459 30.1814 86.1872 30.7041 86.1872 31.1628C86.1872 31.6108 86.3099 31.8348 86.5552 31.8348ZM89.3151 32.2188C89.0165 32.2188 88.8671 31.9894 88.8671 31.5308C88.8671 31.2854 89.1658 29.4988 89.7631 26.1708C89.8058 25.9468 89.9018 25.8348 90.0511 25.8348C90.2431 25.8348 90.3871 25.9734 90.4831 26.2508C90.5365 26.4001 90.5631 26.5654 90.5631 26.7468C90.5631 26.9174 90.5418 27.1041 90.4991 27.3067L90.2431 28.6188H90.3231C91.2405 26.4854 92.0831 25.4187 92.8511 25.4187C93.2778 25.4187 93.5605 25.6268 93.6991 26.0428C93.7525 26.2028 93.7791 26.3894 93.7791 26.6028C93.7791 26.8054 93.7205 27.0294 93.6031 27.2748C93.4005 27.6908 93.0965 27.8988 92.6911 27.8988C92.6058 27.8988 92.5365 27.8774 92.4831 27.8347C92.4405 27.7921 92.4138 27.7334 92.4031 27.6587C92.4885 27.6587 92.6005 27.5041 92.7391 27.1948C92.8778 26.8748 92.9578 26.5814 92.9791 26.3148C93.0005 26.0481 92.9098 25.8934 92.7071 25.8508C92.3338 25.8508 91.8911 26.3361 91.3791 27.3067C90.8671 28.2774 90.4565 29.2054 90.1471 30.0908C89.8378 30.9761 89.6565 31.5521 89.6031 31.8188C89.5498 32.0854 89.4538 32.2188 89.3151 32.2188Z" fill="white"/>
</svg>
